<?xml version="1.0" encoding="utf-8"?>
<!-- Generator: Adobe Illustrator 21.0.2, SVG Export Plug-In . SVG Version: 6.00 Build 0)  -->
<svg version="1.1" id="Layer_1" xmlns="http://www.w3.org/2000/svg" xmlns:xlink="http://www.w3.org/1999/xlink" x="0px" y="0px"
	 viewBox="0 0 200 40" style="enable-background:new 0 0 200 40;" xml:space="preserve">
<style type="text/css">
	.st0{fill:#D9E021;}
</style>
<g>
	<path class="st0" d="M96.5,17.8c-1.1,0-2,0.4-2.7,1.2s-1.1,1.7-1.1,2.9c0,1.1,0.4,2.1,1.1,2.8s1.7,1.1,2.8,1.1c1.1,0,2-0.4,2.7-1.2
		s1.1-1.7,1.1-2.9c0-1.2-0.4-2.1-1.1-2.9S97.6,17.8,96.5,17.8z"/>
	<path class="st0" d="M48.3,22.8h-2.9v2.8h2.9c0.5,0,0.9-0.1,1.2-0.4s0.4-0.6,0.4-1s-0.1-0.8-0.4-1S48.8,22.8,48.3,22.8z"/>
	<path class="st0" d="M80.6,17.8c-1,0-1.9,0.4-2.7,1.2s-1.1,1.7-1.1,2.8c0,1.1,0.4,2.1,1.1,2.8s1.7,1.2,2.7,1.2c1.1,0,2-0.4,2.7-1.2
		s1.1-1.7,1.1-2.8c0-1.1-0.4-2.1-1.1-2.9S81.7,17.8,80.6,17.8z"/>
	<path class="st0" d="M189.9,0H10.1C4.5,0,0,4.5,0,10.1v19.8C0,35.5,4.5,40,10.1,40h179.8c5.6,0,10.1-4.5,10.1-10.1V10.1
		C200,4.5,195.5,0,189.9,0z M51.8,27.2c-0.9,0.8-2,1.2-3.3,1.2h-6.3V15.2h5.5c1.5,0,2.7,0.4,3.6,1.1s1.4,1.7,1.4,3
		c0,0.5-0.2,1-0.5,1.4s-0.7,0.7-1.1,0.9c0.6,0.2,1,0.5,1.4,1s0.6,1,0.6,1.6C53.1,25.4,52.7,26.4,51.8,27.2z M69.7,28.5l-4.6-6.1v6.1
		h-3.2V15.2h3.2v6.1l4.6-6.1h3.9l-5.3,6.6l5.6,6.7H69.7z M86.8,25.3c-0.6,1.1-1.5,1.9-2.6,2.5s-2.3,0.9-3.5,0.9
		c-1.3,0-2.5-0.3-3.6-0.9s-2-1.5-2.6-2.5s-0.9-2.2-0.9-3.5c0-1,0.2-1.9,0.6-2.7s0.9-1.6,1.5-2.2s1.4-1.1,2.3-1.5s1.8-0.6,2.8-0.6
		c1.3,0,2.4,0.3,3.5,0.9s1.9,1.5,2.6,2.5s0.9,2.2,0.9,3.5C87.7,23.1,87.4,24.2,86.8,25.3z M102.7,25.4c-0.6,1.1-1.4,1.9-2.4,2.5
		s-2.2,0.9-3.4,0.9c-0.8,0-1.5-0.1-2.2-0.4s-1.3-0.6-1.9-1.2v5.7h-3.2V15.2h2.9v1.6c1.1-1.3,2.5-1.9,4.4-1.9c1.3,0,2.4,0.3,3.4,0.9
		s1.8,1.4,2.4,2.5s0.8,2.2,0.8,3.6C103.6,23.1,103.3,24.3,102.7,25.4z M114.3,26.5c-0.5,0.7-1.1,1.2-1.8,1.6s-1.6,0.6-2.5,0.6
		c-1.4,0-2.5-0.4-3.5-1.3s-1.5-1.9-1.6-3.2h3.2c0,0.5,0.2,0.8,0.6,1.1s0.8,0.4,1.3,0.4s1-0.2,1.3-0.5s0.5-0.7,0.5-1.1
		c0-0.3,0-0.5-0.1-0.7s-0.2-0.4-0.4-0.5s-0.3-0.2-0.6-0.3s-0.5-0.1-0.7-0.1s-0.5,0-0.9,0v-2.1c0.8,0,1.4-0.1,1.8-0.3
		s0.6-0.6,0.6-1.2c0-0.4-0.1-0.7-0.4-0.9s-0.6-0.4-1.1-0.4c-0.4,0-0.8,0.1-1.1,0.4s-0.5,0.6-0.5,0.9h-3c0.1-1.2,0.6-2.2,1.4-3
		s1.9-1.2,3.2-1.2c1.3,0,2.4,0.4,3.2,1.2s1.3,1.8,1.3,3c0,0.5-0.2,1.1-0.5,1.5s-0.8,0.8-1.4,0.9v0c0.7,0.2,1.2,0.5,1.7,1.1
		s0.7,1.1,0.7,1.7C115,25.1,114.7,25.8,114.3,26.5z M129.4,28.5h-3.2v-8.8l-6,8.8H117V15.2h3.2v8.8l6-8.8h3.2V28.5z M144.2,28.5H141
		v-5.3h-5.9v5.3H132V15.2h3.2v5.1h5.9v-5.1h3.2V28.5z M151.4,32.9h-3.4l2.5-5.7l-4.9-12.1h3.6l3,8.6l3.2-8.6h3.7L151.4,32.9z"/>
	<path class="st0" d="M49.1,20.1c0.3-0.2,0.5-0.5,0.5-0.9s-0.2-0.7-0.5-0.9s-0.8-0.3-1.5-0.3h-2.3v2.4h2.3
		C48.3,20.4,48.8,20.3,49.1,20.1z"/>
	<path d="M51.1,21.5c0.4-0.2,0.8-0.5,1.1-0.9s0.5-0.9,0.5-1.4c0-1.3-0.5-2.3-1.4-3s-2.1-1.1-3.6-1.1h-5.5v13.3h6.3
		c1.4,0,2.5-0.4,3.3-1.2s1.3-1.8,1.3-3.1c0-0.6-0.2-1.2-0.6-1.6S51.7,21.8,51.1,21.5z M45.4,18.1h2.3c0.6,0,1.1,0.1,1.5,0.3
		s0.5,0.5,0.5,0.9s-0.2,0.7-0.5,0.9s-0.8,0.3-1.5,0.3h-2.3V18.1z M49.5,25.2c-0.3,0.3-0.7,0.4-1.2,0.4h-2.9v-2.8h2.9
		c0.5,0,0.9,0.1,1.2,0.4s0.4,0.6,0.4,1S49.7,24.9,49.5,25.2z"/>
	<polygon points="73.5,15.2 69.7,15.2 65.1,21.3 65.1,15.2 61.9,15.2 61.9,28.5 65.1,28.5 65.1,22.3 69.7,28.5 73.8,28.5 68.2,21.8 
			"/>
	<path d="M84.2,15.8c-1.1-0.6-2.3-0.9-3.5-0.9c-1,0-1.9,0.2-2.8,0.6s-1.6,0.9-2.3,1.5s-1.1,1.4-1.5,2.2s-0.6,1.8-0.6,2.7
		c0,1.3,0.3,2.4,0.9,3.5s1.5,1.9,2.6,2.5s2.3,0.9,3.6,0.9c1.3,0,2.5-0.3,3.5-0.9s1.9-1.5,2.6-2.5s0.9-2.2,0.9-3.5
		c0-1.3-0.3-2.4-0.9-3.5S85.3,16.4,84.2,15.8z M83.4,24.7c-0.8,0.8-1.7,1.2-2.7,1.2c-1.1,0-2-0.4-2.7-1.2s-1.1-1.7-1.1-2.8
		c0-1.1,0.4-2,1.1-2.8s1.6-1.2,2.7-1.2c1.1,0,2,0.4,2.8,1.2s1.1,1.7,1.1,2.9C84.5,22.9,84.1,23.9,83.4,24.7z"/>
	<path d="M100.4,15.7c-1-0.6-2.1-0.9-3.4-0.9c-1.9,0-3.3,0.6-4.4,1.9v-1.6h-2.9v17.7h3.2v-5.7c0.6,0.5,1.2,0.9,1.9,1.2
		s1.4,0.4,2.2,0.4c1.3,0,2.4-0.3,3.4-0.9s1.8-1.4,2.4-2.5s0.9-2.3,0.9-3.6c0-1.3-0.3-2.5-0.8-3.6S101.4,16.3,100.4,15.7z M99.3,24.7
		c-0.7,0.8-1.6,1.2-2.7,1.2c-1.1,0-2-0.4-2.8-1.1s-1.1-1.7-1.1-2.8c0-1.2,0.4-2.1,1.1-2.9s1.6-1.2,2.7-1.2c1.1,0,2.1,0.4,2.8,1.1
		s1.1,1.7,1.1,2.9C100.4,23,100,23.9,99.3,24.7z"/>
	<path d="M112.6,21.5L112.6,21.5c0.6-0.2,1-0.5,1.4-0.9s0.5-1,0.5-1.5c0-1.2-0.4-2.2-1.3-3s-2-1.2-3.2-1.2c-1.3,0-2.3,0.4-3.2,1.2
		s-1.3,1.8-1.4,3h3c0.1-0.4,0.3-0.7,0.5-0.9s0.7-0.4,1.1-0.4c0.4,0,0.8,0.1,1.1,0.4s0.4,0.6,0.4,0.9c0,0.5-0.2,0.9-0.6,1.2
		s-1,0.3-1.8,0.3v2.1c0.4,0,0.7,0,0.9,0s0.5,0.1,0.7,0.1s0.4,0.2,0.6,0.3s0.3,0.3,0.4,0.5s0.1,0.4,0.1,0.7c0,0.4-0.2,0.8-0.5,1.1
		s-0.8,0.5-1.3,0.5s-0.9-0.1-1.3-0.4s-0.6-0.7-0.6-1.1h-3.2c0.1,1.3,0.6,2.3,1.6,3.2s2.1,1.3,3.5,1.3c0.9,0,1.8-0.2,2.5-0.6
		s1.4-0.9,1.8-1.6s0.7-1.4,0.7-2.3c0-0.6-0.2-1.2-0.7-1.7S113.3,21.6,112.6,21.5z"/>
	<polygon points="120.2,23.9 120.2,15.2 117,15.2 117,28.5 120.3,28.5 126.2,19.7 126.2,28.5 129.4,28.5 129.4,15.2 126.1,15.2 	"/>
	<polygon points="141,20.3 135.1,20.3 135.1,15.2 132,15.2 132,28.5 135.1,28.5 135.1,23.2 141,23.2 141,28.5 144.2,28.5 
		144.2,15.2 141,15.2 	"/>
	<polygon points="152.1,23.8 149.2,15.2 145.6,15.2 150.4,27.2 147.9,32.9 151.4,32.9 159,15.2 155.4,15.2 	"/>
</g>
</svg>
