<?xml version="1.0" encoding="utf-8"?>
<!-- Generator: Adobe Illustrator 21.0.2, SVG Export Plug-In . SVG Version: 6.00 Build 0)  -->
<svg version="1.1" id="Layer_1" xmlns="http://www.w3.org/2000/svg" xmlns:xlink="http://www.w3.org/1999/xlink" x="0px" y="0px"
	 viewBox="0 0 331.4 136.7" style="enable-background:new 0 0 331.4 136.7;" xml:space="preserve">
<style type="text/css">
	.st0{fill:#B3B3B3;}
</style>
<g>
	<g>
		<path class="st0" d="M198,76.7c1.8,0,3.5,0.8,4.7,2.3c2,2.6,1.6,6.3-1,8.4l-36,28l-36-28c-2.6-2-3.1-5.8-1-8.4
			c2-2.6,5.8-3.1,8.4-1l28.7,22.3L194.4,78C195.5,77.1,196.8,76.7,198,76.7z"/>
	</g>
	<g>
		<path class="st0" d="M198,98c1.8,0,3.5,0.8,4.7,2.3c2,2.6,1.6,6.3-1,8.4l-36,28l-36-28c-2.6-2-3.1-5.8-1-8.4c2-2.6,5.8-3.1,8.4-1
			l28.7,22.3l28.6-22.4C195.5,98.4,196.8,98,198,98z"/>
	</g>
</g>
<g>
	<path d="M0,54.8V1.6h13.5l14.3,40.3L42,1.6h13.5v53.2h-9.8V14.9L31.9,54.8h-8.1L9.9,14.9v39.9H0z"/>
	<path d="M61.2,54.8L83.4,1.6h7.8l22.3,53.2h-10.9L96.9,41H78l-5.9,13.7H61.2z M81.6,31.6H93l-5.7-16.1L81.6,31.6z"/>
	<path d="M147.1,11h-18.1v43.8H119V1.6h28V11z"/>
	<path d="M142.7,54.8l22.2-53.2h7.8L195,54.8h-10.9L178.4,41h-18.9l-5.9,13.7H142.7z M163.1,31.6h11.4l-5.7-16.1L163.1,31.6z"/>
	<path d="M210.7,31v-8.6c6.6,0,9.9-2,9.9-6.1c0-1.7-0.6-3.1-1.8-4.4c-1.2-1.2-2.7-1.8-4.5-1.8s-3.3,0.6-4.5,1.8
		c-1.2,1.2-1.8,2.7-1.8,4.4h-9.6c0-4.3,1.5-8,4.6-11.1c3.1-3,6.8-4.6,11.3-4.6s8.2,1.5,11.3,4.6c3.1,3,4.6,6.7,4.6,11.1
		c0,1.5-0.2,2.9-0.7,4.2s-1.3,2.5-2.3,3.6c-1,1.1-2.3,1.9-3.7,2.3c2.4,0.8,4.4,2.5,6,4.9s2.4,4.8,2.4,7.3c0,3.1-0.8,6-2.4,8.6
		s-3.7,4.7-6.4,6.3s-5.6,2.3-8.8,2.3s-6.1-0.8-8.8-2.3s-4.8-3.6-6.4-6.3s-2.4-5.5-2.4-8.6h9.9c0,2.1,0.7,3.9,2.2,5.4
		s3.3,2.2,5.4,2.2s3.9-0.7,5.4-2.2s2.2-3.3,2.2-5.4c0-2.8-0.9-4.7-2.7-5.9C217.4,31.6,214.6,31,210.7,31z"/>
	<path d="M272.5,1.6h10v53.2h-9.8V17.9l-23.1,36.9h-10V1.6h9.8v36.8L272.5,1.6z"/>
	<path d="M292.7,54.8V1.6h9.9V23h19V1.6h9.8v53.2h-9.8V32.5h-19v22.3H292.7z"/>
</g>
</svg>
