<?xml version="1.0" encoding="utf-8"?>
<!-- Generator: Adobe Illustrator 21.0.2, SVG Export Plug-In . SVG Version: 6.00 Build 0)  -->
<svg version="1.1" id="Layer_1" xmlns="http://www.w3.org/2000/svg" xmlns:xlink="http://www.w3.org/1999/xlink" x="0px" y="0px"
	 viewBox="0 0 76.6 60" style="enable-background:new 0 0 76.6 60;" xml:space="preserve">
<style type="text/css">
	.st0{fill:#B3B3B3;}
</style>
<g>
	<g>
		<path class="st0" d="M70.6,0c1.8,0,3.5,0.8,4.7,2.3c2,2.6,1.6,6.3-1,8.4l-36,28l-36-28c-2.6-2-3.1-5.8-1-8.4c2-2.6,5.8-3.1,8.4-1
			l28.7,22.3L67,1.3C68.1,0.4,69.4,0,70.6,0z"/>
	</g>
	<g>
		<path class="st0" d="M70.6,21.3c1.8,0,3.5,0.8,4.7,2.3c2,2.6,1.6,6.3-1,8.4l-36,28l-36-28c-2.6-2-3.1-5.8-1-8.4
			c2-2.6,5.8-3.1,8.4-1l28.7,22.3L67,22.5C68.1,21.7,69.4,21.3,70.6,21.3z"/>
	</g>
</g>
</svg>
