<?xml version="1.0" encoding="utf-8"?>
<!-- Generator: Adobe Illustrator 21.0.2, SVG Export Plug-In . SVG Version: 6.00 Build 0)  -->
<svg version="1.1" id="Layer_2" xmlns="http://www.w3.org/2000/svg" xmlns:xlink="http://www.w3.org/1999/xlink" x="0px" y="0px"
	 viewBox="0 0 1368 260.6" style="enable-background:new 0 0 1368 260.6;" xml:space="preserve">
<style type="text/css">
	.st0{fill:none;}
	.st1{fill:#CC9966;}
	.st2{fill:#0C3648;}
	.st3{fill:#CC0000;}
	.st4{fill:#FF0000;}
	.st5{fill:#FFCC99;}
	.st6{fill:#8C6239;}
	.st7{fill:#CC6633;}
	.st8{fill:#993300;}
</style>
<g>
	<path class="st0" d="M290.1,36.9c-2.9,0-5.3,2.4-5.3,5.3v42.6c0,2.9,2.4,5.3,5.3,5.3s5.3-2.4,5.3-5.3V42.2
		C295.4,39.3,293,36.9,290.1,36.9z"/>
	<path class="st0" d="M559.1,0c-0.4,1.1-0.8,2.2-1.2,3.3c-9.5,26.8-15.3,55.9-15.3,71.2v27c0,10.5,2.7,20.3,7.5,28.9v-23.9
		c0-33,26.7-59.7,59.7-59.7h4.3V18.4c0-3.3,0.9-6.3,2.4-8.9c0.4-0.7,0.8-1.3,1.3-1.9c1.6-2,3.5-3.7,5.8-4.9c2.4-1.3,5.2-2,8.2-2H668
		c3.4,0,6.6,1,9.3,2.6c2.4,1.5,4.4,3.5,5.8,5.8c0.7,1.2,1.4,2.5,1.8,3.9c0.5,1.7,0.8,3.5,0.8,5.4V30c4.6-0.5,9.4-0.8,14.2-0.8
		s9.6,0.3,14.2,0.8V18.4c0-1.9,0.3-3.7,0.8-5.4c0.4-1.4,1.1-2.7,1.8-3.9c1.5-2.4,3.5-4.4,5.8-5.8c2.7-1.7,5.9-2.6,9.3-2.6H768
		c3,0,5.7,0.7,8.2,2c2.3,1.2,4.3,2.9,5.8,4.9c0.5,0.6,0.9,1.2,1.3,1.9c1.5,2.6,2.4,5.7,2.4,8.9v28.4h4.3c33,0,59.7,26.7,59.7,59.7
		v23.9c4.7-8.6,7.5-18.4,7.5-28.9v-27c0-15.3-5.8-44.4-15.2-71.1c-0.4-1.1-0.8-2.3-1.2-3.4"/>
	<g>
		<path class="st1" d="M719,30.6c0.9,0.1,1.8,0.3,2.7,0.4c0.4,0.1,0.8,0.1,1.2,0.2c0.9,0.2,1.8,0.3,2.7,0.5c0.3,0.1,0.7,0.1,1,0.2
			c1.2,0.3,2.3,0.5,3.5,0.8h0.1c1.3,0.3,2.5,0.7,3.8,1h0.1c1.2,0.3,2.3,0.7,3.5,1.1c0.2,0.1,0.4,0.1,0.5,0.2c1,0.3,2.1,0.7,3.1,1.1
			c0.2,0.1,0.3,0.1,0.5,0.2c1.1,0.4,2.3,0.9,3.4,1.3c0.1,0,0.2,0.1,0.3,0.1c1.3,0.6,2.7,1.2,4,1.8c0.1,0.1,0.3,0.1,0.4,0.2
			c1.4,0.7,2.7,1.3,4,2l0,0c1.3,0.7,2.5,1.4,3.8,2.1c0.3,0.2,0.5,0.3,0.8,0.5c1.2,0.7,2.4,1.5,3.6,2.3c9.5,6.4,17.6,14.4,23.8,23.8
			V46.9V18.4c0-3.3-0.9-6.3-2.4-8.9c-0.4-0.7-0.8-1.3-1.3-1.9c-1.6-2-3.5-3.7-5.8-4.9c-2.4-1.3-5.2-2-8.2-2h-36.2
			c-3.4,0-6.6,1-9.3,2.6c-2.4,1.5-4.4,3.5-5.8,5.8c-0.7,1.2-1.4,2.5-1.8,3.9c-0.5,1.7-0.8,3.5-0.8,5.4V30c1.3,0.1,2.5,0.3,3.8,0.5
			C718.2,30.5,718.6,30.6,719,30.6z"/>
	</g>
	<g>
		<path class="st2" d="M633.7,248.7c-20.3,0-39.6-4-57.3-11.3c10.8,14.1,27.8,23.3,47,23.3h153.1c19.1,0,36.1-9.1,46.9-23.2
			c-17.7,7.2-37,11.2-57.2,11.2L633.7,248.7L633.7,248.7z"/>
	</g>
	<g>
		<path class="st3" d="M899.5,93.4c0,49.1-25.8,92.5-64.6,117.3c-21.5,13.7-47,21.7-74.3,21.7h-22.9c11,5.9,21.8,10.5,28.5,10.5
			c22.3,0,43.4-4.8,62.4-13.5c51.6-23.4,87.8-74.9,89.3-134.5C917,74.6,904.5,31.3,894.7,0h-18C886.2,29.8,899.5,74.8,899.5,93.4z"
			/>
	</g>
	<g>
		<path class="st3" d="M571.2,229.2c19.1,8.7,40.2,13.6,62.5,13.6c6.8,0,17.6-4.7,28.6-10.5h-23c-27.3,0-52.8-8-74.3-21.8
			c-38.8-24.8-64.6-68.4-64.6-117.1c0-18.6,13.2-63.6,22.7-93.4h-18c-9.8,31.3-22.3,74.6-23.1,94.9
			C483.4,154.1,519.6,205.7,571.2,229.2z"/>
	</g>
	<g>
		<path class="st4" d="M828.6,229.4c-19,8.7-40.2,13.5-62.4,13.5c-6.7,0-17.5-4.7-28.5-10.5h22.9c27.3,0,52.8-8,74.3-21.7
			c38.8-24.7,64.6-68.2,64.6-117.3c0-18.6-13.2-63.6-22.7-93.4h-36.1c0.4,1.1,0.8,2.2,1.2,3.4c9.5,26.7,15.2,55.8,15.2,71.1v27
			c0,10.5-2.7,20.3-7.5,28.9c-7.2,12.9-19,22.9-33.2,27.7c-6,2-12.4,3.1-19.1,3.1h-7.2c-5.7,12.2-13.9,23.1-23.8,32
			c-14.5,13-32.9,21.8-53.2,24.6c-4.4,0.6-8.8,0.9-13.3,0.9s-9-0.3-13.3-0.9c-1.1-0.2-2.3-0.3-3.4-0.5c-0.3-0.1-0.7-0.1-1-0.2
			c-0.8-0.1-1.7-0.3-2.5-0.5c-0.3-0.1-0.7-0.1-1-0.2c-1.1-0.2-2.1-0.5-3.2-0.7c-0.3-0.1-0.5-0.1-0.8-0.2c-0.8-0.2-1.6-0.4-2.4-0.7
			c-0.4-0.1-0.8-0.2-1.3-0.4c-0.7-0.2-1.3-0.4-2-0.6c-0.4-0.1-0.9-0.3-1.3-0.4c-0.9-0.3-1.9-0.7-2.8-1c-0.5-0.2-1-0.4-1.5-0.6
			c-0.5-0.2-1-0.4-1.5-0.6c-0.5-0.2-1.1-0.5-1.6-0.7c-0.4-0.2-0.8-0.4-1.3-0.6c-2-0.9-4-1.9-6-2.9c-0.3-0.2-0.6-0.3-0.9-0.5
			c-0.6-0.3-1.3-0.7-1.9-1.1c-0.2-0.1-0.4-0.2-0.6-0.4c-1.4-0.8-2.8-1.7-4.2-2.6l0,0c-4.3-2.8-8.4-5.9-12.3-9.4
			c-9.9-8.9-18.1-19.8-23.8-32H602c-6.7,0-13.1-1.1-19.1-3.1c-14.2-4.8-26-14.8-33.2-27.7c-4.7-8.6-7.5-18.4-7.5-28.9v-27
			c0-15.3,5.8-44.4,15.3-71.2c0.4-1.1,0.8-2.2,1.2-3.3H523c-9.5,29.8-22.7,74.8-22.7,93.4c0,48.8,25.8,92.3,64.6,117.1
			c21.5,13.8,47,21.8,74.3,21.8h23c-11,5.9-21.8,10.5-28.6,10.5c-22.3,0-43.4-4.9-62.5-13.6c-51.5-23.6-87.7-75.2-89.2-134.4
			c0,0.7,0,1.4,0,2c0,62.7,39,117.5,94.5,140.4c17.7,7.3,37,11.3,57.3,11.3h132.5c20.2,0,39.6-4,57.2-11.2
			c55.4-22.7,94.5-77.4,94.5-140.5c0-0.6,0-1.3,0-2C916.4,154.4,880.2,205.9,828.6,229.4z"/>
	</g>
	<g>
		<path class="st2" d="M601.3,133.8c-9.4-0.2-17-4.9-17-10.8c0-5.7,7.1-10.4,16.1-10.8c1.1-15.8,5.9-29.8,13.7-41.5V46.9h-4.3
			c-33,0-59.7,26.7-59.7,59.7v23.9c7.2,12.9,19,22.9,33.2,27.7c6,2,12.4,3.1,19.1,3.1h7.2c-2.3-5-4.2-10.1-5.7-15.5
			C602.7,141.8,601.9,137.9,601.3,133.8z"/>
	</g>
	<g>
		<path class="st2" d="M790,46.9h-4.3v23.8c0.5,0.7,0.9,1.4,1.4,2.2c0.4,0.7,0.8,1.3,1.2,2c0,0.1,0.1,0.1,0.1,0.2
			c0.8,1.5,1.7,3,2.4,4.5l0,0l0,0c0.6,1.2,1.1,2.3,1.6,3.5c0.1,0.1,0.1,0.3,0.2,0.4c1,2.4,1.9,4.8,2.7,7.3c0.1,0.2,0.1,0.4,0.2,0.6
			c0.4,1.2,0.7,2.4,1.1,3.7l0,0c0.3,1.2,0.6,2.5,0.9,3.8c0.1,0.3,0.1,0.5,0.2,0.8c0.3,1.2,0.5,2.5,0.7,3.7v0.1
			c0.2,1.3,0.4,2.6,0.5,3.9c0,0.3,0.1,0.6,0.1,0.9c0.1,1.3,0.3,2.6,0.4,4c9,0.4,16.1,5.1,16.1,10.8c0,5.9-7.6,10.7-17,10.8
			c-0.6,4-1.5,8-2.5,11.9c-1.5,5.4-3.4,10.5-5.7,15.5h7.2c6.7,0,13.1-1.1,19.1-3.1c14.2-4.8,26-14.8,33.2-27.7v-23.9
			C849.7,73.6,823,46.9,790,46.9z"/>
	</g>
	<g>
		<path class="st5" d="M584.2,123c0,5.9,7.6,10.7,17,10.8c-0.7-4.9-1.1-9.8-1.1-14.9c0-2.3,0.1-4.5,0.2-6.7
			C591.4,112.6,584.2,117.3,584.2,123z"/>
	</g>
	<g>
		<path class="st5" d="M798.6,133.8c9.4-0.2,17-4.9,17-10.8c0-5.7-7.1-10.4-16.1-10.8c0.1,2.2,0.2,4.4,0.2,6.7
			C799.7,124,799.3,129,798.6,133.8z"/>
	</g>
	<g>
		<path class="st6" d="M788.4,75c0.8,1.5,1.7,3,2.4,4.5C790,78,789.2,76.5,788.4,75z"/>
	</g>
	<g>
		<path class="st6" d="M792.6,83.5c1,2.4,1.9,4.8,2.7,7.3C794.5,88.3,793.6,85.8,792.6,83.5z"/>
	</g>
	<g>
		<path class="st6" d="M749.3,39.7c-1.3-0.6-2.6-1.2-4-1.8C746.6,38.5,748,39.1,749.3,39.7z"/>
	</g>
	<g>
		<path class="st7" d="M740.1,123.2c-2.7-12.9-14.1-24.4-32.3-29.2c-8.1-2.1-16.1-3.4-23.3-5.7c-28.2-9-47-23.6-44.8-36.9
			c0.5-3.1,2.1-6,4.7-8.5c-2.2,1.3-4.4,2.6-6.5,4c-9.5,6.4-17.6,14.4-23.8,23.8c-7.8,11.8-12.6,25.7-13.7,41.5
			c-0.1,2.2-0.2,4.4-0.2,6.7c0,5.1,0.4,10,1.1,14.9c0.6,4,1.5,8,2.5,11.9c1.5,5.4,3.4,10.5,5.7,15.5c5.7,12.2,13.9,23.1,23.8,32
			c3.8,3.4,7.9,6.6,12.3,9.4C705,185.6,746.2,152,740.1,123.2z"/>
	</g>
	<g>
		<path class="st6" d="M659.1,210c-2-0.9-4-1.9-6-2.9C655.1,208.1,657.1,209,659.1,210z"/>
	</g>
	<g>
		<path class="st1" d="M637.9,46.9c2.1-1.4,4.3-2.7,6.5-4c10.9-6.1,23.3-10.3,36.7-12.3l0,0c0.7-0.1,1.4-0.2,2-0.3
			c0.9-0.1,1.7-0.2,2.6-0.3V18.4c0-1.9-0.3-3.7-0.8-5.4c-0.4-1.4-1.1-2.7-1.8-3.9c-1.5-2.4-3.5-4.4-5.8-5.8
			c-2.7-1.7-5.9-2.6-9.3-2.6h-36.2c-3,0-5.7,0.7-8.2,2c-2.3,1.2-4.3,2.9-5.8,4.9c-0.5,0.6-0.9,1.2-1.3,1.9c-1.5,2.6-2.4,5.7-2.4,8.9
			v28.4v23.8C620.3,61.3,628.4,53.3,637.9,46.9z"/>
	</g>
	<g>
		<path class="st6" d="M790.8,79.6L790.8,79.6L790.8,79.6z"/>
	</g>
	<g>
		<path class="st8" d="M798.6,133.8c0.7-4.9,1.1-9.8,1.1-14.9c0-2.3-0.1-4.5-0.2-6.7c-0.1-1.3-0.2-2.7-0.4-4c0-0.3-0.1-0.6-0.1-0.9
			c-0.2-1.3-0.3-2.6-0.5-3.9v-0.1c-0.2-1.3-0.5-2.5-0.7-3.7c-0.1-0.3-0.1-0.5-0.2-0.8c-0.3-1.3-0.6-2.5-0.9-3.8l0,0
			c-0.3-1.2-0.7-2.5-1.1-3.7c-0.1-0.2-0.1-0.4-0.2-0.6c-0.8-2.5-1.7-4.9-2.7-7.3c-0.1-0.1-0.1-0.3-0.2-0.4c-0.5-1.2-1.1-2.4-1.6-3.5
			l0,0c-0.8-1.5-1.6-3-2.4-4.5c0-0.1-0.1-0.1-0.1-0.2c-0.4-0.7-0.8-1.3-1.2-2s-0.9-1.5-1.4-2.2c-6.2-9.4-14.3-17.4-23.8-23.8
			c-1.2-0.8-2.4-1.5-3.6-2.3c-0.3-0.2-0.5-0.3-0.8-0.5c-1.2-0.7-2.5-1.5-3.8-2.1l0,0c-1.3-0.7-2.7-1.4-4-2c-0.1-0.1-0.3-0.1-0.4-0.2
			c-1.3-0.6-2.6-1.2-4-1.8c-1.2-0.5-2.5-1-3.7-1.5c-0.2-0.1-0.3-0.1-0.5-0.2c-1-0.4-2-0.7-3.1-1.1c-0.2-0.1-0.4-0.1-0.5-0.2
			c-1.1-0.4-2.3-0.7-3.5-1.1H734c-1.3-0.4-2.5-0.7-3.8-1h-0.1c-1.2-0.3-2.3-0.6-3.5-0.8c-0.3-0.1-0.7-0.1-1-0.2
			c-0.9-0.2-1.8-0.4-2.7-0.5c-0.4-0.1-0.8-0.1-1.2-0.2c-0.9-0.2-1.8-0.3-2.7-0.4c-0.4-0.1-0.7-0.1-1.1-0.2c-1.2-0.2-2.5-0.3-3.8-0.5
			c-4.6-0.5-9.4-0.8-14.2-0.8s-9.6,0.3-14.2,0.8c-0.9,0.1-1.7,0.2-2.6,0.3c-0.7,0.1-1.4,0.2-2,0.3c-13.4,2-25.8,6.2-36.7,12.3
			c-2.6,2.5-4.2,5.4-4.7,8.5c-2.1,13.3,16.7,27.9,44.8,36.9c7.2,2.3,15.2,3.5,23.3,5.7c18.2,4.8,29.5,16.3,32.3,29.2
			c6.1,28.8-35.1,62.4-94.5,79.4l0,0c1.4,0.9,2.8,1.7,4.2,2.6c0.2,0.1,0.4,0.2,0.6,0.4c0.6,0.4,1.3,0.7,1.9,1.1
			c0.3,0.2,0.6,0.3,0.9,0.5c2,1,3.9,2,6,2.9c0.4,0.2,0.8,0.4,1.3,0.6c0.5,0.2,1.1,0.5,1.6,0.7s1,0.4,1.5,0.6c0.5,0.2,1,0.4,1.5,0.6
			c0.9,0.3,1.9,0.7,2.8,1c0.4,0.1,0.9,0.3,1.3,0.4c0.7,0.2,1.3,0.4,2,0.6c0.4,0.1,0.8,0.3,1.3,0.4c0.8,0.2,1.6,0.5,2.4,0.7
			c0.3,0.1,0.5,0.1,0.8,0.2c1.1,0.3,2.1,0.5,3.2,0.7c0.3,0.1,0.7,0.1,1,0.2c0.8,0.2,1.6,0.3,2.5,0.5c0.3,0.1,0.7,0.1,1,0.2
			c1.1,0.2,2.3,0.4,3.4,0.5c4.4,0.6,8.8,0.9,13.3,0.9s9-0.3,13.3-0.9c20.3-2.7,38.7-11.5,53.2-24.6c9.9-8.9,18.1-19.8,23.8-32
			c2.3-5,4.2-10.1,5.7-15.5C797.1,141.8,797.9,137.9,798.6,133.8z"/>
	</g>
	<g>
		<path class="st8" d="M741.6,36.5c1.2,0.5,2.5,1,3.7,1.5c-0.1,0-0.2-0.1-0.3-0.1C743.9,37.4,742.7,36.9,741.6,36.5z"/>
	</g>
	<path class="st2" d="M1365,45.2h-38.1c-0.7-2.2-2.7-3.8-5.1-3.8c-2.9,0-5.3,2.4-5.3,5.3c0,2.9,2.4,5.3,5.3,5.3
		c2.4,0,4.4-1.6,5.1-3.8h38.1V112h-38.1c-0.7-2.2-2.7-3.8-5.1-3.8c-2.9,0-5.3,2.4-5.3,5.3s2.4,5.3,5.3,5.3c2.4,0,4.4-1.6,5.1-3.8
		h38.1v66.3h-38.1c-0.7-2.2-2.7-3.8-5.1-3.8c-2.9,0-5.3,2.4-5.3,5.3c0,2.9,2.4,5.3,5.3,5.3c2.4,0,4.4-1.6,5.1-3.8h41.1V0h-3V45.2z"
		/>
	<path class="st2" d="M0,236.7h176.7c0.7,2.2,2.7,3.8,5.1,3.8c2.9,0,5.3-2.4,5.3-5.3c0-2.9-2.4-5.3-5.3-5.3c-2.4,0-4.4,1.6-5.1,3.8
		H3V0H0V236.7z"/>
</g>
<g>
	<g>
		<path class="st4" d="M108.2,15.8h12.4c1.5,0,2.3,0.8,2.3,2.3v73.1c0,4.6-2.5,7-7,7h-13.5c-15.6,0-22.2-10.3-22.2-23.9V18.1
			c0-1.5,0.8-2.3,2.3-2.3h12.6c1.5,0,2.3,0.8,2.3,2.3v56.8c0,4.4,2,7.5,5.4,7.5h2.9V18.1C105.9,16.6,106.7,15.8,108.2,15.8z"/>
		<path class="st4" d="M160.1,15.8h12.4c1.5,0,2.3,0.8,2.3,2.3v77.2c0,1.5-0.8,2.3-2.3,2.3h-12.4c-1.5,0-2.3-0.8-2.3-2.3v-31h-8v31
			c0,1.5-0.8,2.3-2.3,2.3h-12.4c-1.5,0-2.3-0.8-2.3-2.3V18.1c0-1.5,0.8-2.3,2.3-2.3h12.4c1.5,0,2.3,0.8,2.3,2.3v30.4h8V18.1
			C157.8,16.6,158.6,15.8,160.1,15.8z"/>
		<path class="st4" d="M207.5,101.7v-9.4h-3.4c-13.3,0-21.9-9-21.9-23.3V43c0-14.2,8.5-23.2,21.9-23.2h3.4V12c0-1.4,0.9-2.3,2.3-2.3
			H222c1.4,0,2.3,0.9,2.3,2.3v7.8h3.4c13.3,0,21.9,9,21.9,23.2v26.1c0,14.3-8.5,23.3-21.9,23.3h-3.4v9.4c0,1.4-0.9,2.3-2.3,2.3
			h-12.2C208.4,104.1,207.5,103.1,207.5,101.7z M207.5,76.6V35.6h-2.2c-4,0-6,2.3-6,6.2v28.5c0,3.9,2,6.2,6,6.2H207.5z M226.6,76.6
			c4,0,6-2.3,6-6.2V41.8c0-3.9-2-6.2-6-6.2h-2.2v40.9H226.6z"/>
		<path class="st4" d="M255.9,76.5V36.9c0-13.6,8.9-22.6,22-22.6c13.1,0,22,9,22,22.6v39.5c0,13.6-8.9,22.6-22,22.6
			C264.8,99,255.9,90,255.9,76.5z M282.6,77.9V35.5c0-3.3-1.8-5.1-4.7-5.1c-2.9,0-4.7,1.9-4.7,5.1v42.3c0,3.3,1.8,5.1,4.7,5.1
			C280.8,83,282.6,81.1,282.6,77.9z"/>
		<path class="st2" d="M80.7,217.8v-93.2c0-6.3,3-9.8,9-9.8H103c4.8,0,6.9,3,8.4,8.3l7.5,25.4c1.5,5.3,3.6,13.7,4.5,19.1h0.3
			c0.9-5.4,3-13.8,4.5-19.1l7.5-25.4c1.5-5.3,3.6-8.3,8.4-8.3h13.2c6,0,9,3.5,9,9.8v93.2c0,2-1.1,3-3,3h-15.5c-2.1,0-3-1.1-3-3
			v-45.2c0-9.9,0.5-19.1,0.9-28h-0.5c-0.9,6-2.7,14.9-4.2,20.7l-5.4,21c-1.4,5.1-4.4,8-9.8,8h-4.8c-5.4,0-8.4-2.9-9.8-8l-5.4-21
			c-1.5-5.9-3.3-14.7-4.2-20.7h-0.5c0.5,8.9,0.9,18,0.9,28v45.2c0,2-0.9,3-3,3H83.7C81.8,220.8,80.7,219.7,80.7,217.8z"/>
		<path class="st2" d="M213.5,115.6h15.9c2,0,3,1.1,3,3v94c0,5.9-3.2,9-9,9h-17.3c-20,0-28.6-13.2-28.6-30.7v-72.3c0-2,1.1-3,3-3
			h16.2c2,0,3,1.1,3,3v73.1c0,5.7,2.6,9.6,6.9,9.6h3.8v-82.7C210.5,116.6,211.5,115.6,213.5,115.6z"/>
		<path class="st2" d="M244.4,217.8v-75c0-17.4,11-29,27.2-29c16.8,0,28.3,11.6,28.3,29v13.7c0,17.4-11.1,29-27.8,29h-5.6v32.3
			c0,2-1.1,3-3,3h-16.1C245.5,220.8,244.4,219.7,244.4,217.8z M270.6,165.2c5,0,7.1-2.4,7.1-8V141c0-4.1-2.1-6.5-5.7-6.5
			c-3.3,0-5.4,2.4-5.4,6.5v24.2H270.6z"/>
	</g>
</g>
</svg>
