<?xml version="1.0" encoding="utf-8"?>
<!-- Generator: Adobe Illustrator 21.0.2, SVG Export Plug-In . SVG Version: 6.00 Build 0)  -->
<svg version="1.1" id="Layer_2" xmlns="http://www.w3.org/2000/svg" xmlns:xlink="http://www.w3.org/1999/xlink" x="0px" y="0px"
	 viewBox="0 0 1368 411.7" style="enable-background:new 0 0 1368 411.7;" xml:space="preserve">
<style type="text/css">
	.st0{fill:#3BB9B4;}
	.st1{fill:url(#SVGID_1_);}
	.st2{fill:#F2F2F2;}
	.st3{fill:#4D4D4D;}
	.st4{fill:#CCCCCC;}
	.st5{fill:#B3B3B3;}
	.st6{fill:url(#SVGID_2_);}
	.st7{fill:#0C3648;}
	.st8{fill:#FFFFFF;}
	.st9{fill:#A67C52;}
	.st10{fill:#FFFFCC;}
	.st11{fill:#FFCC99;}
	.st12{fill:#8C6239;}
	.st13{fill:#603813;}
	.st14{fill:#FF0000;}
	.st15{fill:#C69C6D;}
	.st16{fill:#754C24;}
	.st17{fill:#FF7BAC;}
	.st18{fill:#FFBE78;}
	.st19{fill:#FDD089;}
	.st20{fill:none;}
	.st21{fill:#E6E6E6;}
	.st22{fill:url(#SVGID_3_);}
	.st23{fill:#00FFFF;}
	.st24{fill:#333333;}
	.st25{fill:#666666;}
	.st26{fill:#CC0000;}
</style>
<g>
	<path class="st0" d="M955.8,303.6l11.7,46L955.8,303.6z"/>
	<path class="st0" d="M603.5,206.9c0,13.9,11.4,25.3,25.3,25.3H791c13.9,0,25.3-11.4,25.3-25.3v-9.5H603.5V206.9z"/>
	
		<linearGradient id="SVGID_1_" gradientUnits="userSpaceOnUse" x1="709.9" y1="181.8662" x2="709.9" y2="216.6162" gradientTransform="matrix(1 0 0 -1 0 414)">
		<stop  offset="0" style="stop-color:#FFFFFF"/>
		<stop  offset="1" style="stop-color:#CCCCCC"/>
	</linearGradient>
	<path class="st1" d="M603.5,206.9c0,13.9,11.4,25.3,25.3,25.3H791c13.9,0,25.3-11.4,25.3-25.3v-9.5H603.5V206.9z"/>
	<path class="st2" d="M976,38.4H443.7c-6.9,0-12.5,5.6-12.5,12.5c0,0,1.1,3,3.1,8.3h551c1.9-5.2,3.1-8.3,3.1-8.3
		C988.4,44,982.8,38.4,976,38.4z"/>
	<path class="st2" d="M481.2,184.9c2.4,6.4,5.6,12.5,12.5,12.5h109.9h212.8h109.9c6.9,0,10.1-6.1,12.5-12.5c1.4-3.7,3.1-8.3,5-13.5
		H476.1C478,176.4,479.7,181,481.2,184.9z"/>
	<path class="st3" d="M476.1,171.4h467.5c12.2-32.8,33.8-90.8,41.8-112.3h-551C442.2,80.3,463.4,137.2,476.1,171.4z M930.6,159.9
		H489.1l-31.8-89.3h505L930.6,159.9z"/>
	<polygon class="st4" points="930.6,159.9 962.4,70.6 457.3,70.6 	"/>
	<polygon class="st5" points="489.1,159.9 930.6,159.9 457.3,70.6 	"/>
	<path class="st0" d="M973.9,287.7c-2.3-9-11.5-14.5-20.5-12.2l-4.5,1.1l2.6,10.3c1.5-0.4,2.9-0.2,4.2,0.6c1.3,0.7,2.2,1.9,2.5,3.4
		l1.5,6c0.7,2.9-1,5.9-4,6.7l0,0l0,0l11.7,46.1l4.5-1.1c9-2.3,14.5-11.5,12.2-20.5L973.9,287.7z"/>
	
		<linearGradient id="SVGID_2_" gradientUnits="userSpaceOnUse" x1="938.1737" y1="124.6169" x2="989.5484" y2="81.5083" gradientTransform="matrix(1 0 0 -1 0 414)">
		<stop  offset="0" style="stop-color:#FFFFFF"/>
		<stop  offset="1" style="stop-color:#CCCCCC"/>
	</linearGradient>
	<path class="st6" d="M973.9,287.7c-2.3-9-11.5-14.5-20.5-12.2l-4.5,1.1l2.6,10.3c1.5-0.4,2.9-0.2,4.2,0.6c1.3,0.7,2.2,1.9,2.5,3.4
		l1.5,6c0.7,2.9-1,5.9-4,6.7l0,0l0,0l11.7,46.1l4.5-1.1c9-2.3,14.5-11.5,12.2-20.5L973.9,287.7z"/>
	<path class="st4" d="M954.4,303.7c-1,0-1.9-0.3-2.8-0.8c-1.3-0.7-2.2-1.9-2.5-3.4l-1.5-6c-0.4-1.4-0.1-2.9,0.6-4.1
		c0.7-1.3,1.9-2.2,3.4-2.5l0,0l-2.6-10.3l-4.9,1.3c-9,2.3-14.5,11.5-12.2,20.5l10.3,40.3c2.3,9,11.5,14.5,20.5,12.2l4.9-1.3
		l-11.8-46.1C955.3,303.7,954.8,303.7,954.4,303.7z"/>
	<path class="st7" d="M949,290c-0.6,1-0.8,2.2-0.5,3.4l1.5,6c0.3,1.2,1,2.1,2.1,2.7c1,0.6,2.2,0.8,3.4,0.5l0,0
		c2.4-0.6,3.8-3.1,3.2-5.4l-1.5-6c-0.3-1.2-1-2.1-2.1-2.7c-0.7-0.4-1.5-0.6-2.3-0.6c-0.4,0-0.7,0-1.1,0.1
		C950.6,288.2,949.6,288.9,949,290z"/>
	<path class="st8" d="M948.1,289.4c-0.7,1.3-1,2.7-0.6,4.1l1.5,6c0.4,1.4,1.3,2.6,2.5,3.4c0.9,0.5,1.8,0.8,2.8,0.8
		c0.5,0,0.9-0.1,1.4-0.2l0,0l0,0l0,0l0,0c2.9-0.7,4.7-3.7,4-6.7l-1.5-6c-0.4-1.4-1.3-2.6-2.5-3.4c-1.3-0.7-2.7-1-4.2-0.6l0,0
		C950.1,287.3,948.9,288.2,948.1,289.4z M951.8,287.9c0.4-0.1,0.7-0.1,1.1-0.1c0.8,0,1.6,0.2,2.3,0.6c1,0.6,1.8,1.6,2.1,2.7l1.5,6
		c0.6,2.4-0.8,4.8-3.2,5.4l0,0c-1.2,0.3-2.4,0.1-3.4-0.5s-1.8-1.6-2.1-2.7l-1.5-6c-0.3-1.2-0.1-2.4,0.5-3.4
		C949.6,288.9,950.6,288.2,951.8,287.9z"/>
	<path class="st8" d="M955.8,303.6L955.8,303.6L955.8,303.6z"/>
	
		<rect x="412.3" y="244.6" transform="matrix(0.9468 -0.3217 0.3217 0.9468 -56.8413 146.6791)" class="st9" width="6.2" height="1.5"/>
	
		<rect x="395.6" y="250.3" transform="matrix(0.9469 -0.3216 0.3216 0.9469 -59.5555 141.5605)" class="st9" width="6.2" height="1.5"/>
	
		<rect x="420.7" y="241.7" transform="matrix(0.9468 -0.3217 0.3217 0.9468 -55.4632 149.2206)" class="st9" width="6.2" height="1.5"/>
	
		<rect x="437.5" y="236.1" transform="matrix(0.9469 -0.3216 0.3216 0.9469 -52.7615 154.2825)" class="st9" width="6.2" height="1.5"/>
	
		<rect x="387.2" y="253.1" transform="matrix(0.9469 -0.3216 0.3216 0.9469 -60.9083 139.004)" class="st9" width="6.2" height="1.5"/>
	
		<rect x="454.2" y="230.4" transform="matrix(0.9469 -0.3216 0.3216 0.9469 -50.0465 159.3511)" class="st9" width="6.2" height="1.5"/>
	
		<rect x="445.8" y="233.2" transform="matrix(0.9469 -0.3216 0.3216 0.9469 -51.3973 156.7948)" class="st9" width="6.2" height="1.5"/>
	
		<rect x="429.1" y="238.9" transform="matrix(0.9468 -0.3217 0.3217 0.9468 -54.1117 151.7776)" class="st9" width="6.2" height="1.5"/>
	
		<rect x="404" y="247.4" transform="matrix(0.9469 -0.3216 0.3216 0.9469 -58.178 144.1013)" class="st9" width="6.2" height="1.5"/>
	
		<rect x="370.5" y="258.8" transform="matrix(0.9469 -0.3216 0.3216 0.9469 -63.6233 133.9354)" class="st9" width="6.2" height="1.5"/>
	<path class="st9" d="M355.4,271.8c-0.9-2.6,0.3-5.4,2.7-6.2l1.8-0.6l-0.5-1.4l-3.6,1.2c-2.4,0.8-3.6,3.6-2.7,6.2l1,2.8l1.8-0.6
		L355.4,271.8z"/>
	
		<rect x="362.1" y="261.7" transform="matrix(0.9469 -0.3216 0.3216 0.9469 -65.0028 131.3944)" class="st9" width="6.2" height="1.5"/>
	
		<rect x="462.6" y="227.5" transform="matrix(0.9469 -0.3216 0.3216 0.9469 -48.667 161.8921)" class="st9" width="6.2" height="1.5"/>
	
		<rect x="378.8" y="256" transform="matrix(0.9469 -0.3216 0.3216 0.9469 -62.2879 136.463)" class="st9" width="6.2" height="1.5"/>
	<path class="st9" d="M481.1,227.5c-0.9-2.6-3.6-4.1-6-3.3l-4.2,1.4l0.5,1.4l2.4-0.8c2.4-0.8,5.1,0.6,6,3.3l0.5,1.4l1.2,3.5
		l27.6,81.4c0.9,2.6-0.3,5.4-2.7,6.2l-115.6,39.3c-2.4,0.8-5.1-0.6-6-3.3l-27.6-81.4l-1.8,0.6l28.1,82.8c0.9,2.6,3.6,4.1,6,3.3
		l119.2-40.5c2.4-0.8,3.6-3.6,2.7-6.2L481.1,227.5z"/>
	<path class="st10" d="M384.7,358c0.9,2.6,3.6,4.1,6,3.3L506.3,322c2.4-0.8,3.6-3.6,2.7-6.2l-27.6-81.4l-124.3,42.2L384.7,358z
		 M474.3,238.2l26.2,77.2l-1.1,0.4l-26.2-77.2L474.3,238.2z M466.6,240.8l26.2,77.2l-1.1,0.4l-26.2-77.2L466.6,240.8z M458.9,243.4
		l26.2,77.2L484,321l-26.2-77.2L458.9,243.4z M451.3,246l26.2,77.2l-1.1,0.4l-26.2-77.2L451.3,246z M443.6,248.6l26.2,77.2l-1.1,0.4
		L442.5,249L443.6,248.6z M435.9,251.2l26.2,77.2l-1.1,0.4l-26.2-77.2L435.9,251.2z M428.2,253.9l26.2,77.2l-1.1,0.4l-26.2-77.2
		L428.2,253.9z M420.5,256.5l26.2,77.2l-1.1,0.4l-26.2-77.2L420.5,256.5z M412.8,259.1l26.2,77.2l-1.1,0.4l-26.2-77.2L412.8,259.1z
		 M405.1,261.7l26.2,77.2l-1.1,0.4L404,262.1L405.1,261.7z M397.5,264.3l26.2,77.2l-1.1,0.4l-26.2-77.2L397.5,264.3z M389.8,266.9
		l26.2,77.2l-1.1,0.4l-26.2-77.2L389.8,266.9z M382.1,269.5l26.2,77.2l-1.1,0.4L381,269.9L382.1,269.5z M374.4,272.1l26.2,77.2
		l-1.1,0.4l-26.2-77.2L374.4,272.1z M392.9,351.9l-1.1,0.4l-26.2-77.2l1.1-0.4L392.9,351.9z"/>
	<path class="st10" d="M472.5,232.2l-1.5,0.5c-0.3,0.1-0.6-0.1-0.7-0.4l-1.5-4.3l-5.8,2l1.5,4.3c0.1,0.3,0,0.7-0.3,0.8l-1.5,0.5
		c-0.3,0.1-0.6-0.1-0.7-0.4l-1.5-4.3l-5.8,2l1.5,4.3c0.1,0.3,0,0.7-0.3,0.8l-1.5,0.5c-0.3,0.1-0.6-0.1-0.7-0.4l-1.5-4.3l-5.8,2
		l1.5,4.3c0.1,0.3,0,0.7-0.3,0.8l-1.5,0.5c-0.3,0.1-0.6-0.1-0.7-0.4l-1.5-4.3l-5.8,2l1.5,4.3c0.1,0.3,0,0.7-0.3,0.8l-1.5,0.5
		c-0.3,0.1-0.6-0.1-0.7-0.4l-1.5-4.3l-5.8,2l1.5,4.3c0.1,0.3,0,0.7-0.3,0.8l-1.5,0.5c-0.3,0.1-0.6-0.1-0.7-0.4l-1.5-4.3l-5.8,2
		l1.5,4.3c0.1,0.3,0,0.7-0.3,0.8l-1.5,0.5c-0.3,0.1-0.6-0.1-0.7-0.4l-1.5-4.3l-5.8,2l1.5,4.3c0.1,0.3,0,0.7-0.3,0.8l-1.5,0.5
		c-0.3,0.1-0.6-0.1-0.7-0.4l-1.5-4.3l-5.8,2l1.5,4.3c0.1,0.3,0,0.7-0.3,0.8l-1.5,0.5c-0.3,0.1-0.6-0.1-0.7-0.4l-1.5-4.3l-5.8,2
		l1.5,4.3c0.1,0.3,0,0.7-0.3,0.8l-1.5,0.5c-0.3,0.1-0.6-0.1-0.7-0.4l-1.5-4.3l-5.8,2l1.5,4.3c0.1,0.3,0,0.7-0.3,0.8l-1.5,0.5
		c-0.3,0.1-0.6-0.1-0.7-0.4l-1.5-4.3l-5.8,2l1.5,4.3c0.1,0.3,0,0.7-0.3,0.8l-1.5,0.5c-0.3,0.1-0.6-0.1-0.7-0.4l-1.5-4.3l-5.8,2
		l1.5,4.3c0.1,0.3,0,0.7-0.3,0.8l-1.5,0.5c-0.3,0.1-0.6-0.1-0.7-0.4l-1.5-4.3l-5.8,2l1.5,4.3c0.1,0.3,0,0.7-0.3,0.8l-1.5,0.5
		c-0.3,0.1-0.6-0.1-0.7-0.4l-1.5-4.3l-1.8,0.6c-2.4,0.8-3.6,3.6-2.7,6.2l0.5,1.4L480.2,231l-0.5-1.4c-0.9-2.6-3.6-4.1-6-3.3
		l-2.4,0.8l1.5,4.3C472.9,231.7,472.8,232.1,472.5,232.2z"/>
	
		<rect x="486.3" y="236.2" transform="matrix(0.9469 -0.3216 0.3216 0.9469 -63.2125 171.283)" class="st11" width="1.1" height="81.5"/>
	
		<rect x="478.6" y="238.8" transform="matrix(0.9469 -0.3216 0.3216 0.9469 -64.4595 168.9442)" class="st11" width="1.1" height="81.5"/>
	
		<rect x="470.9" y="241.4" transform="matrix(0.9469 -0.3216 0.3216 0.9469 -65.7065 166.6053)" class="st11" width="1.1" height="81.5"/>
	
		<rect x="463.2" y="244" transform="matrix(0.9469 -0.3216 0.3216 0.9469 -66.9536 164.2665)" class="st11" width="1.1" height="81.5"/>
	
		<rect x="455.6" y="246.7" transform="matrix(0.9469 -0.3216 0.3216 0.9469 -68.214 161.9718)" class="st11" width="1.1" height="81.5"/>
	
		<rect x="447.9" y="249.3" transform="matrix(0.9469 -0.3216 0.3216 0.9469 -69.4609 159.633)" class="st11" width="1.1" height="81.5"/>
	
		<rect x="440.2" y="251.9" transform="matrix(0.9469 -0.3216 0.3216 0.9469 -70.7079 157.2942)" class="st11" width="1.1" height="81.5"/>
	
		<rect x="432.5" y="254.5" transform="matrix(0.9469 -0.3216 0.3216 0.9469 -71.9549 154.9554)" class="st11" width="1.1" height="81.5"/>
	
		<rect x="424.8" y="257.1" transform="matrix(0.9469 -0.3216 0.3216 0.9469 -73.2019 152.6166)" class="st11" width="1.1" height="81.5"/>
	
		<rect x="417.1" y="259.7" transform="matrix(0.9469 -0.3216 0.3216 0.9469 -74.4489 150.2778)" class="st11" width="1.1" height="81.5"/>
	
		<rect x="409.4" y="262.3" transform="matrix(0.9469 -0.3216 0.3216 0.9469 -75.6959 147.939)" class="st11" width="1.1" height="81.5"/>
	
		<rect x="401.8" y="264.9" transform="matrix(0.9469 -0.3216 0.3216 0.9469 -76.9275 145.6289)" class="st11" width="1.1" height="81.5"/>
	
		<rect x="394.1" y="267.5" transform="matrix(0.9469 -0.3216 0.3216 0.9469 -78.1746 143.2901)" class="st11" width="1.1" height="81.5"/>
	
		<rect x="386.4" y="270.1" transform="matrix(0.9469 -0.3216 0.3216 0.9469 -79.4215 140.9513)" class="st11" width="1.1" height="81.5"/>
	
		<rect x="378.7" y="272.8" transform="matrix(0.9468 -0.3217 0.3217 0.9468 -80.7039 138.6787)" class="st11" width="1.1" height="81.5"/>
	<path class="st12" d="M469,220c-0.1-0.3-0.4-0.5-0.7-0.4l-1.5,0.5c-0.3,0.1-0.4,0.4-0.3,0.8l1.9,5.7l2.5-0.9L469,220z"/>
	<path class="st13" d="M470.3,232.2c0.1,0.3,0.4,0.5,0.7,0.4l1.5-0.5c0.3-0.1,0.4-0.4,0.3-0.8l-1.5-4.3l-0.5-1.4l-2.5,0.9l0.5,1.4
		L470.3,232.2z"/>
	<path class="st12" d="M460.6,222.9c-0.1-0.3-0.4-0.5-0.7-0.4l-1.5,0.5c-0.3,0.1-0.4,0.4-0.3,0.8l1.9,5.7l2.5-0.9L460.6,222.9z"/>
	<path class="st13" d="M461.9,235.1c0.1,0.3,0.4,0.5,0.7,0.4l1.5-0.5c0.3-0.1,0.4-0.4,0.3-0.8L463,230l-0.5-1.4l-2.5,0.9l0.5,1.4
		L461.9,235.1z"/>
	<path class="st12" d="M452.2,225.7c-0.1-0.3-0.4-0.5-0.7-0.4l-1.5,0.5c-0.3,0.1-0.4,0.4-0.3,0.8l1.9,5.7l2.5-0.9L452.2,225.7z"/>
	<path class="st13" d="M453.5,237.9c0.1,0.3,0.4,0.5,0.7,0.4l1.5-0.5c0.3-0.1,0.4-0.4,0.3-0.8l-1.5-4.3l-0.5-1.4l-2.5,0.9l0.5,1.4
		L453.5,237.9z"/>
	<path class="st12" d="M443.8,228.6c-0.1-0.3-0.4-0.5-0.7-0.4l-1.5,0.5c-0.3,0.1-0.4,0.4-0.3,0.8l1.9,5.7l2.5-0.9L443.8,228.6z"/>
	<path class="st13" d="M445.1,240.8c0.1,0.3,0.4,0.5,0.7,0.4l1.5-0.5c0.3-0.1,0.4-0.4,0.3-0.8l-1.5-4.3l-0.5-1.4l-2.5,0.9l0.5,1.4
		L445.1,240.8z"/>
	<path class="st12" d="M435.5,231.4c-0.1-0.3-0.4-0.5-0.7-0.4l-1.5,0.5c-0.3,0.1-0.4,0.4-0.3,0.8l1.9,5.7l2.5-0.9L435.5,231.4z"/>
	<path class="st13" d="M436.8,243.6c0.1,0.3,0.4,0.5,0.7,0.4l1.5-0.5c0.3-0.1,0.4-0.4,0.3-0.8l-1.5-4.3l-0.5-1.4l-2.5,0.9l0.5,1.4
		L436.8,243.6z"/>
	<path class="st12" d="M427.1,234.3c-0.1-0.3-0.4-0.5-0.7-0.4l-1.5,0.5c-0.3,0.1-0.4,0.4-0.3,0.8l1.9,5.7l2.5-0.9L427.1,234.3z"/>
	<path class="st13" d="M428.4,246.5c0.1,0.3,0.4,0.5,0.7,0.4l1.5-0.5c0.3-0.1,0.4-0.4,0.3-0.8l-1.5-4.3l-0.5-1.4l-2.5,0.9l0.5,1.4
		L428.4,246.5z"/>
	<path class="st12" d="M418.7,237.1c-0.1-0.3-0.4-0.5-0.7-0.4l-1.5,0.5c-0.3,0.1-0.4,0.4-0.3,0.8l1.9,5.7l2.5-0.9L418.7,237.1z"/>
	<path class="st13" d="M420,249.3c0.1,0.3,0.4,0.5,0.7,0.4l1.5-0.5c0.3-0.1,0.4-0.4,0.3-0.8l-1.5-4.3l-0.5-1.4l-2.5,0.9l0.5,1.4
		L420,249.3z"/>
	<path class="st12" d="M410.3,240c-0.1-0.3-0.4-0.5-0.7-0.4l-1.5,0.5c-0.3,0.1-0.4,0.4-0.3,0.8l1.9,5.7l2.5-0.9L410.3,240z"/>
	<path class="st13" d="M411.6,252.2c0.1,0.3,0.4,0.5,0.7,0.4l1.5-0.5c0.3-0.1,0.4-0.4,0.3-0.8l-1.5-4.3l-0.5-1.4l-2.5,0.9l0.5,1.4
		L411.6,252.2z"/>
	<path class="st12" d="M402,242.8c-0.1-0.3-0.4-0.5-0.7-0.4l-1.5,0.5c-0.3,0.1-0.4,0.4-0.3,0.8l1.9,5.7l2.5-0.9L402,242.8z"/>
	<path class="st13" d="M403.3,255c0.1,0.3,0.4,0.5,0.7,0.4l1.5-0.5c0.3-0.1,0.4-0.4,0.3-0.8l-1.5-4.3l-0.5-1.4l-2.5,0.9l0.5,1.4
		L403.3,255z"/>
	<path class="st12" d="M393.6,245.6c-0.1-0.3-0.4-0.5-0.7-0.4l-1.5,0.5c-0.3,0.1-0.4,0.4-0.3,0.8l1.9,5.7l2.5-0.9L393.6,245.6z"/>
	<path class="st13" d="M394.9,257.8c0.1,0.3,0.4,0.5,0.7,0.4l1.5-0.5c0.3-0.1,0.4-0.4,0.3-0.8l-1.5-4.3l-0.5-1.4l-2.5,0.9l0.5,1.4
		L394.9,257.8z"/>
	<path class="st12" d="M385.2,248.5c-0.1-0.3-0.4-0.5-0.7-0.4l-1.5,0.5c-0.3,0.1-0.4,0.4-0.3,0.8l1.9,5.7l2.5-0.9L385.2,248.5z"/>
	<path class="st13" d="M386.5,260.7c0.1,0.3,0.4,0.5,0.7,0.4l1.5-0.5c0.3-0.1,0.4-0.4,0.3-0.8l-1.5-4.3l-0.5-1.4l-2.5,0.9l0.5,1.4
		L386.5,260.7z"/>
	<path class="st12" d="M376.8,251.3c-0.1-0.3-0.4-0.5-0.7-0.4l-1.5,0.5c-0.3,0.1-0.4,0.4-0.3,0.8l1.9,5.7l2.5-0.9L376.8,251.3z"/>
	<path class="st13" d="M378.2,263.5c0.1,0.3,0.4,0.5,0.7,0.4l1.5-0.5c0.3-0.1,0.4-0.4,0.3-0.8l-1.5-4.3l-0.5-1.4l-2.5,0.9l0.5,1.4
		L378.2,263.5z"/>
	<path class="st12" d="M368.5,254.2c-0.1-0.3-0.4-0.5-0.7-0.4l-1.5,0.5c-0.3,0.1-0.4,0.4-0.3,0.8l1.9,5.7l2.5-0.9L368.5,254.2z"/>
	<path class="st13" d="M369.8,266.4c0.1,0.3,0.4,0.5,0.7,0.4l1.5-0.5c0.3-0.1,0.4-0.4,0.3-0.8l-1.5-4.3l-0.5-1.4l-2.5,0.9l0.5,1.4
		L369.8,266.4z"/>
	<path class="st12" d="M360.1,257c-0.1-0.3-0.4-0.5-0.7-0.4l-1.5,0.5c-0.3,0.1-0.4,0.4-0.3,0.8l1.9,5.7l2.5-0.9L360.1,257z"/>
	<path class="st13" d="M361.4,269.2c0.1,0.3,0.4,0.5,0.7,0.4l1.5-0.5c0.3-0.1,0.4-0.4,0.3-0.8l-1.5-4.3l-0.5-1.4l-2.5,0.9l0.5,1.4
		L361.4,269.2z"/>
	
		<rect x="354.7" y="273.4" transform="matrix(0.9469 -0.3216 0.3216 0.9469 -69.6288 128.9974)" class="st14" width="1.9" height="3.7"/>
	
		<rect x="353" y="252" transform="matrix(0.9469 -0.3216 0.3216 0.9469 -59.4048 148.1254)" class="st14" width="131.3" height="3.7"/>
	<path class="st15" d="M359.2,326.2c-18.9-32.6-30.1-43.8-31-44.5c0.7,0.8,9.8,13.2,28.7,45.8L359.2,326.2z"/>
	<path class="st12" d="M328.2,281.7C328.2,281.7,328.1,281.7,328.2,281.7c0,0,3.3,14.7,23,49.1l2.3-1.3
		C334.3,296.2,328.4,282.3,328.2,281.7z"/>
	<path class="st9" d="M356.9,327.5c-18.9-32.6-28-45-28.7-45.8l0,0c0.2,0.6,6.2,14.5,25.3,47.8L356.9,327.5z"/>
	<path class="st12" d="M359.8,327.3c-0.2-0.4-0.4-0.7-0.6-1.1l-2.3,1.3c0.2,0.4,0.4,0.7,0.6,1.1c6.5,11.3,19.1,33,19.1,33
		s3.1,5.4,1.4,6.4c3.9-2.3,0.8-7.7,0.8-7.7S366.3,338.6,359.8,327.3z"/>
	<path class="st16" d="M376.6,361.7c0,0-12.6-21.8-19.1-33c-0.2-0.4-0.4-0.7-0.6-1.1l-3.4,2c0.2,0.4,0.4,0.7,0.6,1.1
		c6.5,11.3,19.1,33,19.1,33s3.1,5.4,4.8,4.4l0,0C379.7,367.1,376.6,361.7,376.6,361.7z"/>
	<path class="st13" d="M373.2,363.6c0,0-12.5-21.7-19.1-33c-0.2-0.4-0.4-0.7-0.6-1.1l-2.3,1.3c0.2,0.4,0.4,0.7,0.6,1.1
		c5.9,10.2,16.7,28.9,18.7,32.4l-2.9-0.8L348.3,330l-1.5,0.9l19.8,34.4l5.8,1.5c1.3,1.3,3.3,2.6,5.7,1.3l0,0
		C376.3,369,373.2,363.6,373.2,363.6z"/>
	<path class="st17" d="M361,367.2l-6.4,3.7l1,1.7c0.7,1.2,2.1,1.8,3.2,1.2l2.6-1.5c1-0.6,1.3-2.1,0.6-3.3L361,367.2z"/>
	<polygon class="st2" points="359.7,365 358.1,365.9 354.9,367.8 353.3,368.7 354.6,370.9 361,367.2 	"/>
	<path class="st11" d="M316.7,301.7l0.3-0.2l2.6-1.5l0.3-0.2l0,0c0.5-0.2,1-0.1,1.5,0.1l-6-6.3l-1.9,1.1l2.5,8.3
		C316.1,302.5,316.4,302.1,316.7,301.7L316.7,301.7z"/>
	<path class="st18" d="M318.4,304.5l-1.6-2.8c-0.4,0.3-0.6,0.8-0.7,1.4l0.7,2.3l36.5,63.3l1.6-0.9L318.4,304.5z"/>
	<path class="st18" d="M320,299.9l1.6,2.8l36.5,63.3l1.6-0.9l-36.5-63.3l-1.7-1.8C321,299.7,320.4,299.7,320,299.9z"/>
	<path class="st0" d="M316.7,301.7L316.7,301.7c0.1,0,0.2-0.1,0.3-0.2L316.7,301.7z"/>
	<path class="st0" d="M319.9,299.8l-0.3,0.2C319.8,299.9,319.9,299.9,319.9,299.8L319.9,299.8z"/>
	<path class="st19" d="M320,299.9c-0.1,0-0.2,0.1-0.3,0.1l-2.6,1.5c-0.1,0.1-0.2,0.1-0.3,0.2l1.6,2.8l36.5,63.3l3.2-1.8l-36.5-63.3
		L320,299.9z"/>
	<polygon points="312.2,290.1 313.6,294.7 315.5,293.6 	"/>
	<g>
		<path class="st4" d="M1176.1,142c1.4-4.9,2.2-10.1,2.2-15.4c0-11.7-3.7-22.7-10.1-32c-2.9,7.4-7.3,14.1-12.9,20.1L1176.1,142z"/>
	</g>
	<g>
		<path class="st4" d="M1097.4,138.6c-24.4,0-46-10.2-59.7-25.9c-1.2,4.5-1.8,9.1-1.8,13.9c0,34.4,31.9,62.4,71.2,62.4
			c25.7,0,48.2-11.9,60.7-29.8l-25.5-33.7C1129.8,133.7,1114.3,138.6,1097.4,138.6z"/>
	</g>
	<g>
		<path d="M1090,65.9L1090,65.9c0,0,0,0.1-0.1,0.2h0.1C1090,66,1090,65.9,1090,65.9L1090,65.9z"/>
	</g>
	<g>
		<path class="st20" d="M1155.4,80.7L1155.4,80.7L1155.4,80.7L1155.4,80.7z"/>
	</g>
	<g>
		<path class="st21" d="M1097.4,138.6c16.8,0,32.4-4.9,44.9-13.1l-8.1-10.6c-5.3,2.8-11.2,3.9-17.8,3.9c-18.9,0-34.2-13.4-34.2-30
			c0-0.7,0-1.3,0.1-2c0.8-9.6,6.8-19.4,7.7-20.7c-5.3,1.2-10.4,2.8-15.2,5c-18.5,8.3-32.3,23.4-37,41.6
			C1051.4,128.4,1073.1,138.6,1097.4,138.6z"/>
	</g>
	<g>
		<path class="st21" d="M1146.6,103.1l8.7,11.5c5.6-5.9,10-12.7,12.9-20.1c-3.5-5.1-7.9-9.8-12.9-13.8l0,0
			C1153.1,90.2,1150.2,97.5,1146.6,103.1z"/>
	</g>
	<g>
		<path class="st3" d="M1130.9,97.8c-5,2-10.6,3.1-16.5,3.1c-13.1,0-24.8-5.5-32.1-14.1c-0.1,0.7-0.1,1.3-0.1,2
			c0,16.6,15.3,30,34.2,30c6.6,0,12.6-1.1,17.8-3.9l-5-6.6l8.7-3.1l8.1-2.9l0.6,0.8c3.6-5.6,6.5-12.9,8.7-22.4
			C1150.9,89.4,1141.8,95.9,1130.9,97.8z"/>
	</g>
	<g>
		<path class="st4" d="M1114.4,100.9c5.9,0,11.5-1.1,16.5-3.1c-2.2,0.4-4.4,0.6-6.7,0.6c-18.9,0-34.2-13.4-34.2-30
			c0-0.8,0-1.6,0.1-2.3h-0.1c-0.9,1.4-6.9,11.1-7.7,20.7C1089.6,95.4,1101.2,100.9,1114.4,100.9z"/>
	</g>
	<g>
		
			<linearGradient id="SVGID_3_" gradientUnits="userSpaceOnUse" x1="1124.1" y1="315.6" x2="1124.1" y2="375.6" gradientTransform="matrix(1 0 0 -1 0 414)">
			<stop  offset="0" style="stop-color:#FFFFFF"/>
			<stop  offset="1" style="stop-color:#CCCCCC"/>
		</linearGradient>
		<path class="st22" d="M1089.9,68.4c0,16.6,15.3,30,34.2,30c2.3,0,4.5-0.2,6.7-0.6c10.9-1.9,20-8.4,24.5-17l0,0l0,0
			c1.9-3.8,3-7.9,3-12.4c0-8.3-3.9-15.8-10.1-21.3c-6.2-5.4-14.7-8.7-24.1-8.7c-18,0-32.7,12.1-34.1,27.5V66
			C1090,66.8,1089.9,67.6,1089.9,68.4z"/>
	</g>
	<g>
		<path class="st21" d="M1257.4,247.4c-5-9-11.5-17-19.2-23.7l21.5,28.4C1258.9,250.5,1258.2,249,1257.4,247.4z"/>
	</g>
	<g>
		<path class="st21" d="M1157.6,349.6c-13.6,0-26.3-3.3-37.6-9.1c15.3,17.9,38.1,29.3,63.5,29.3c41,0,75.1-29.6,82.1-68.6
			l-37.4,35.6c-2.1,2-5.4,1.9-7.4-0.2l-3.3-3.5c-2-2.1-1.9-5.4,0.2-7.4l24.5-23.3V257l-3-3.9c0.8,4.5,1.2,9.1,1.2,13.8
			C1240.3,312.6,1203.3,349.6,1157.6,349.6z"/>
	</g>
	<g>
		<path class="st23" d="M1259.9,252.5c-0.8-1.7-1.6-3.4-2.6-5c0.8,1.5,1.6,3.1,2.3,4.7L1259.9,252.5z"/>
	</g>
	<g>
		<path class="st23" d="M1183.5,369.9c-25.4,0-48.2-11.4-63.5-29.3c-12.5-14.6-20-33.5-20-54.2c0-45.9,37-83.1,82.8-83.5
			c-0.3,0-0.5,0-0.8,0c-47.5,0-86,38.5-86,86c0,16.3,4.5,31.5,12.4,44.5c15.1,24.9,42.4,41.5,73.6,41.5c43.8,0,80-32.8,85.3-75.2
			l-1.6,1.6C1258.6,340.3,1224.5,369.9,1183.5,369.9z"/>
	</g>
	<g>
		<circle class="st23" cx="1166.2" cy="239.9" r="8.1"/>
	</g>
	<g>
		<path class="st8" d="M1100,286.4c0,20.7,7.5,39.6,20,54.2c11.3,5.8,24.1,9.1,37.6,9.1c45.7,0,82.7-37,82.7-82.7
			c0-4.7-0.4-9.3-1.2-13.8l-36.2-47.7c-6.5-1.6-13.3-2.5-20.3-2.6C1137,203.3,1100,240.5,1100,286.4z M1166.2,228.8
			c6.1,0,11.1,5,11.1,11.1s-5,11.1-11.1,11.1s-11.1-5-11.1-11.1S1160.1,228.8,1166.2,228.8z"/>
	</g>
	<g>
		<path class="st7" d="M1166.2,251.1c6.1,0,11.1-5,11.1-11.1s-5-11.1-11.1-11.1s-11.1,5-11.1,11.1S1160.1,251.1,1166.2,251.1z
			 M1166.2,231.8c4.5,0,8.1,3.6,8.1,8.1s-3.6,8.1-8.1,8.1s-8.1-3.6-8.1-8.1C1158.1,235.4,1161.7,231.8,1166.2,231.8z"/>
	</g>
	<g>
		<polygon class="st21" points="1245.8,299 1262.2,283.5 1245.8,261.9 		"/>
	</g>
	<g>
		<path class="st24" d="M1266.1,274.1l-36.9-48.6l-11.2-14.7l-0.5-0.7l-44.9-59.2l-23.3-30.7l-8-10.6l-3.4-4.5l-8.7,3.1l5,6.6
			l8.1,10.6l25.5,33.7l34.9,46l0.3,0.4l36.2,47.7l3,3.9v45.5l-24.5,23.3c-2.1,2-2.2,5.3-0.2,7.4l3.3,3.5c2,2.1,5.3,2.2,7.4,0.2
			l37.4-35.6l1.6-1.6l10.6-10.1l-10.9-14.4L1266.1,274.1z M1245.8,299v-37.2l16.4,21.6L1245.8,299z"/>
	</g>
	<g>
		<path class="st25" d="M1282.4,282.1l-4.7-6.2l-17.8-23.4l-0.3-0.4l-21.5-28.4l-1-1.3l-61-80.4l-20.8-27.4l-8.7-11.5l-0.6-0.8
			l-8.1,2.9l3.4,4.5l8,10.6l23.3,30.7l44.9,59.2l0.5,0.7l11.2,14.7l36.9,48.6l0.8,1.1l10.9,14.4l3-2.8
			C1282.2,285.6,1282.7,283.8,1282.4,282.1z"/>
	</g>
	<path class="st0" d="M846.6,314.2L846.6,314.2L846.6,314.2z"/>
	<ellipse class="st0" cx="846.6" cy="316.8" rx="0" ry="0"/>
	<path class="st0" d="M846.6,318.2L846.6,318.2L846.6,318.2z"/>
	<path class="st0" d="M825.1,311.3L825.1,311.3L825.1,311.3z"/>
	<path class="st0" d="M825.1,323.4L825.1,323.4L825.1,323.4z"/>
	<path class="st0" d="M803.6,320.3L803.6,320.3L803.6,320.3z"/>
	<ellipse class="st0" cx="825.1" cy="313.2" rx="0" ry="0"/>
	<path class="st0" d="M803.6,318.7L803.6,318.7L803.6,318.7z"/>
	<ellipse class="st0" cx="825.1" cy="320.5" rx="0" ry="0"/>
	<polygon class="st2" points="837.5,327.5 840.5,327.5 839.2,323.8 836.2,323.8 	"/>
	<path class="st2" d="M557.1,310.9V306H585v0.5c1.1-0.4,2.4-0.4,3.6,0.1V306h17.9v17.9h-5.8c0,0.5-0.1,1.1-0.3,1.6l-3.9,10.6v9.4
		H593l-1.3,3.6h14.8V367h-7l-0.6,1.5c-0.3,0.8-0.9,1.5-1.6,2.1h9.2v17.9h-17.9v-13l-3.6,2v11h-20.5l-0.2,0.5l-1.3,3.7l1.6,0.6
		l-1.9,4.8h273.4l-1.7-4.4l1.6-0.6l-1.3-3.4l-0.4-1.1h-9.7v-4.9l-3.6-1.9v6.8h-17.5l0,0v-8.9l0,0h13.6l-14-7.5
		c-1.1-0.5-2.5-1.8-3-3.1l-0.7-1.9H782l0,0V349l0,0h17.9v1.3c1.3-0.2,2.6,0.1,3.6,0.9V349l0,0h3.6l-1.3-3.6h-12.3l0,0v-17.9l0,0h5.7
		l-0.6-1.6c-0.2-0.7-0.3-1.3-0.3-2H782l0,0V306l0,0h17.9v14.2c0.4-0.4,0.8-0.7,1.3-0.9c0.8-0.4,1.6-0.5,2.3-0.5V306l0,0h17.9v15.6
		l2.2,5.9h3l-1.3-3.6h-0.1l0,0v-0.4l-2.1-5.7c-0.9-2.4,0-5.1,2.1-6.4V306l0,0h17.9v5.5c1.5,0.3,2.9,1.3,3.6,2.8V306l0,0h16.7v17.9
		h-13.1l1.3,3.6h11.8v17.9H858l1.3,3.6h3.9v10.6l1.9,5.3c0.7,1.8,0.2,3.7-0.9,5.1c-0.7,0.9-0.9,2.1-0.5,3.1l2.8,7.8l0.8-0.3l1.9-0.8
		l2.1,5.4V279.4c0-3-2.5-5.5-5.5-5.5H554.7c-3,0-5.5,2.5-5.5,5.5v43.3l3.1-8.4C553,312.2,555,310.9,557.1,310.9z M600.1,345.3v-17.9
		H618v17.9H600.1z M768.4,327.5v17.9h-17.9l0,0v-17.9l0,0H768.4z M760.6,323.8V306l0,0h17.9v17.9h-17.9V323.8z M756.9,323.8H739V306
		h17.9V323.8z M746.9,327.5v17.9H729v-17.9H746.9z M735.4,349v17.9h-17.9V349H735.4z M735.4,323.8h-17.9V306h17.9V323.8z
		 M725.4,327.5v17.9h-17.9v-17.9H725.4z M713.9,349v17.9H696V349H713.9z M713.9,323.8H696V306h17.9V323.8z M703.9,327.5v17.9H686
		v-17.9H703.9z M692.4,349v17.9h-17.9V349H692.4z M692.4,323.8h-17.9V306h17.9V323.8z M682.4,327.5v17.9h-17.9v-17.9H682.4z
		 M670.9,349v17.9H653V349H670.9z M670.9,323.8H653V306h17.9V323.8z M660.9,327.5v17.9H643v-17.9H660.9z M649.4,323.8h-17.9V306
		h17.9V323.8z M639.4,327.5v17.9h-17.9v-17.9H639.4z M627.9,323.8H610V306h17.9V323.8z M627.9,388.3H610v-17.9h17.9V388.3z
		 M627.9,366.8H610V349h17.9V366.8z M649.4,388.3h-17.9v-17.9h17.9V388.3z M649.4,366.8h-17.9V349h17.9V366.8z M756.9,388.3H653.1
		v-17.9H757L756.9,388.3L756.9,388.3z M756.9,366.8H739V349h17.9V366.8z M778.4,388.3h-17.9l0,0v-17.9l0,0h17.9V388.3z M778.4,366.8
		h-17.9l0,0V349l0,0h17.9V366.8z M782.1,370.5H800v17.9h-17.9l0,0V370.5L782.1,370.5z M789.9,327.5v17.9H772l0,0v-17.9l0,0H789.9z
		 M836.6,284.5L836.6,284.5h26.7v17.9h-26.7l0,0V284.5z M815.1,284.5L815.1,284.5H833v17.9h-17.9l0,0V284.5z M793.6,284.5
		L793.6,284.5h17.9v17.9h-17.9l0,0V284.5z M772.1,284.5L772.1,284.5H790v17.9h-17.9l0,0V284.5z M750.6,284.5L750.6,284.5h17.9v17.9
		h-17.9l0,0V284.5z M729.1,284.5H747v17.9h-17.9V284.5z M707.6,284.5h17.9v17.9h-17.9V284.5z M686.1,284.5H704v17.9h-17.9V284.5z
		 M664.6,284.5h17.9v17.9h-17.9V284.5z M643.1,284.5H661v17.9h-17.9V284.5z M621.6,284.5h17.9v17.9h-17.9V284.5z M600.1,284.5H618
		v17.9h-17.9V284.5z M578.6,284.5h17.9v17.9h-17.9V284.5z M557.1,284.5H575v17.9h-17.9V284.5z"/>
	<polygon class="st2" points="558.3,327.5 561.4,327.5 562.7,323.8 559.7,323.8 	"/>
	<polygon class="st2" points="556.7,332 557.1,332.2 557.1,330.9 	"/>
	<polygon class="st2" points="810.3,327.5 811.4,327.5 811.4,330.6 815.1,340.6 815.1,334.1 811.3,323.8 808.9,323.8 	"/>
	<polygon class="st2" points="572.3,327.5 575.3,327.5 576.6,323.8 573.7,323.8 	"/>
	<polygon class="st2" points="588.6,321.1 586.2,327.5 588.6,327.5 589.9,323.8 588.6,323.8 	"/>
	<rect x="558.1" y="285.5" class="st7" width="15.9" height="15.9"/>
	<path class="st5" d="M574.9,284.5H557v17.9h17.9V284.5z M573.9,301.3H558v-15.9h15.9V301.3z"/>
	<rect x="579.6" y="285.5" class="st7" width="15.9" height="15.9"/>
	<path class="st5" d="M596.4,284.5h-17.9v17.9h17.9V284.5z M595.4,301.3h-15.9v-15.9h15.9V301.3z"/>
	<rect x="601.1" y="285.5" class="st7" width="15.9" height="15.9"/>
	<path class="st5" d="M617.9,284.5H600v17.9h17.9V284.5z M616.9,301.3H601v-15.9h15.9V301.3z"/>
	<rect x="622.6" y="285.5" class="st7" width="15.9" height="15.9"/>
	<path class="st5" d="M639.4,284.5h-17.9v17.9h17.9V284.5z M638.4,301.3h-15.9v-15.9h15.9V301.3z"/>
	<rect x="644.1" y="285.5" class="st7" width="15.9" height="15.9"/>
	<path class="st5" d="M660.9,284.5H643v17.9h17.9V284.5z M659.9,301.3H644v-15.9h15.9V301.3z"/>
	<rect x="665.6" y="285.5" class="st7" width="15.9" height="15.9"/>
	<path class="st5" d="M682.4,284.5h-17.9v17.9h17.9V284.5z M681.4,301.3h-15.9v-15.9h15.9V301.3z"/>
	<rect x="687.1" y="285.5" class="st7" width="15.9" height="15.9"/>
	<path class="st5" d="M703.9,284.5H686v17.9h17.9V284.5z M702.9,301.3H687v-15.9h15.9V301.3z"/>
	<rect x="708.6" y="285.5" class="st7" width="15.9" height="15.9"/>
	<path class="st5" d="M725.4,284.5h-17.9v17.9h17.9V284.5z M724.4,301.3h-15.9v-15.9h15.9V301.3z"/>
	<rect x="730.1" y="285.5" class="st7" width="15.9" height="15.9"/>
	<path class="st5" d="M746.9,284.5H729v17.9h17.9V284.5z M745.9,301.3H730v-15.9h15.9V301.3z"/>
	<rect x="751.6" y="285.5" class="st7" width="15.9" height="15.9"/>
	<rect x="750.6" y="284.5" class="st7" width="0" height="17.9"/>
	<path class="st5" d="M768.4,302.3v-17.9h-17.9v17.9H768.4z M751.6,285.5h15.9v15.9h-15.9V285.5z"/>
	<rect x="772.1" y="284.5" class="st7" width="0" height="17.9"/>
	<rect x="773.1" y="285.5" class="st7" width="15.9" height="15.9"/>
	<path class="st5" d="M789.9,302.3v-17.9H772v17.9H789.9z M773.1,285.5H789v15.9h-15.9V285.5z"/>
	<rect x="794.6" y="285.5" class="st7" width="15.9" height="15.9"/>
	<rect x="793.6" y="284.5" class="st7" width="0" height="17.9"/>
	<path class="st5" d="M811.4,302.3v-17.9h-17.9v17.9H811.4z M794.6,285.5h15.9v15.9h-15.9V285.5z"/>
	<rect x="816.1" y="285.5" class="st7" width="15.9" height="15.9"/>
	<rect x="815.1" y="284.5" class="st7" width="0" height="17.9"/>
	<path class="st5" d="M832.9,302.3v-17.9H815v17.9H832.9z M816.1,285.5H832v15.9h-15.9V285.5z"/>
	<rect x="837.6" y="285.5" class="st7" width="24.7" height="15.9"/>
	<rect x="836.6" y="284.5" class="st7" width="0" height="17.9"/>
	<path class="st5" d="M863.3,302.3v-17.9h-26.7v17.9H863.3z M837.6,285.5h24.7v15.9h-24.7V285.5z"/>
	<path class="st7" d="M558.1,307v4c0.4,0.1,0.8,0.2,1.2,0.4c2.4,1.2,3.4,4.1,2.5,6.6l-1.8,4.8h3l3.4-9.3c1-2.8,4.3-4.2,7.1-2.9
		c2.4,1.2,3.4,4.1,2.5,6.6l-2,5.6h3l4.9-13.3c0.4-1.1,1.2-2,2.1-2.6l0,0L558.1,307L558.1,307z"/>
	<polygon class="st5" points="559.7,323.8 562.7,323.8 563.1,322.8 560,322.8 	"/>
	<path class="st5" d="M557.1,306v4.9c0.3,0,0.7,0,1,0.1v-4H584l0,0c0.3-0.2,0.7-0.4,1-0.5V306H557.1z"/>
	<polygon class="st5" points="573.7,323.8 576.6,323.8 577,322.8 574,322.8 	"/>
	<path class="st7" d="M605.4,307h-15.9v0.1c1.9,1.3,2.7,3.9,1.9,6.2l-1.9,5v4.5h0.7l0.4-1.2c1-2.8,4.3-4.2,7.1-2.9
		c1.6,0.8,2.6,2.3,2.8,4h4.9V307z"/>
	<polygon class="st5" points="589.6,318.3 588.6,321.1 588.6,323.8 589.9,323.8 590.3,322.8 589.6,322.8 	"/>
	<path class="st5" d="M606.4,306h-17.9v0.6c0.1,0,0.2,0.1,0.3,0.1c0.2,0.1,0.5,0.3,0.7,0.4V307h15.9v15.9h-4.9c0,0.3,0.1,0.7,0,1
		h5.8V306H606.4z"/>
	<rect x="611.1" y="307" class="st7" width="15.9" height="15.9"/>
	<path class="st5" d="M610.1,323.8H628V306h-17.9V323.8z M611.1,307H627v15.9h-15.9V307z"/>
	<rect x="632.6" y="307" class="st7" width="15.9" height="15.9"/>
	<path class="st5" d="M631.6,323.8h17.9V306h-17.9V323.8z M632.6,307h15.9v15.9h-15.9V307z"/>
	<rect x="654.1" y="307" class="st7" width="15.9" height="15.9"/>
	<path class="st5" d="M653.1,323.8H671V306h-17.9V323.8z M654.1,307H670v15.9h-15.9V307z"/>
	<rect x="675.6" y="307" class="st7" width="15.9" height="15.9"/>
	<path class="st5" d="M674.6,323.8h17.9V306h-17.9V323.8z M675.6,307h15.9v15.9h-15.9V307z"/>
	<rect x="697.1" y="307" class="st7" width="15.9" height="15.9"/>
	<path class="st5" d="M696.1,323.8H714V306h-17.9V323.8z M697.1,307H713v15.9h-15.9V307z"/>
	<rect x="718.6" y="307" class="st7" width="15.9" height="15.9"/>
	<path class="st5" d="M717.6,323.8h17.9V306h-17.9V323.8z M718.6,307h15.9v15.9h-15.9V307z"/>
	<rect x="740.1" y="307" class="st7" width="15.9" height="15.9"/>
	<path class="st5" d="M739.1,323.8H757V306h-17.9V323.8z M740.1,307H756v15.9h-15.9V307z"/>
	<rect x="760.6" y="306" class="st7" width="0" height="17.9"/>
	<rect x="761.6" y="307" class="st7" width="15.9" height="15.9"/>
	<path class="st5" d="M778.4,306h-17.9v17.9h17.9V306z M777.4,322.8h-15.9V307h15.9V322.8z"/>
	<path class="st7" d="M783.1,307v15.9h15.4c0.1-0.4,0.2-0.8,0.4-1.2V307H783.1z"/>
	<rect x="782.1" y="306" class="st7" width="0" height="17.9"/>
	<path class="st5" d="M783.1,322.8V307H799v14.6c0.3-0.5,0.6-1,1-1.4V306h-17.9v17.9h16.3c0-0.3,0-0.7,0.1-1h-15.4V322.8z"/>
	<path class="st7" d="M804.6,318.9c1.7,0.4,3.1,1.5,3.7,3.2l0.3,0.7h2.4l-3.3-9.1c-0.9-2.5,0.1-5.4,2.5-6.6c0.1-0.1,0.2-0.1,0.3-0.1
		h-5.9V318.9z"/>
	<path class="st7" d="M814.3,307c1.3,0.5,2.4,1.6,2.9,3l3.3,8.9V307H814.3z"/>
	<rect x="803.6" y="306" class="st7" width="0" height="12.8"/>
	<polygon class="st5" points="808.9,323.8 811.3,323.8 810.9,322.8 808.6,322.8 	"/>
	<path class="st5" d="M804.6,318.9V307h5.9c1.3-0.5,2.6-0.5,3.8,0h6.2v11.9l1,2.7V306h-17.9v12.8
		C803.9,318.7,804.3,318.8,804.6,318.9z"/>
	<rect x="825.1" y="323.4" class="st7" width="0" height="0.4"/>
	<rect x="825.1" y="306" class="st7" width="0" height="5.4"/>
	<path class="st7" d="M826.1,307v3.9c2.6-0.9,5.5,0.5,6.5,3.1l3.3,8.9h3l-1.6-4.4c-0.9-2.5,0.1-5.4,2.5-6.6c0.7-0.3,1.5-0.5,2.2-0.5
		V307H826.1z"/>
	<path class="st5" d="M825.5,311.1c0.2-0.1,0.4-0.2,0.6-0.2V307H842v4.4c0.3,0,0.7,0,1,0.1V306h-17.9v5.4
		C825.2,311.3,825.3,311.2,825.5,311.1z"/>
	<polygon class="st5" points="825.1,323.8 825.2,323.8 825.1,323.4 	"/>
	<polygon class="st5" points="836.2,323.8 839.2,323.8 838.8,322.8 835.8,322.8 	"/>
	<rect x="846.6" y="306" class="st7" width="0" height="8.2"/>
	<polygon class="st7" points="862.3,307 847.6,307 847.6,316.8 849.8,322.8 862.3,322.8 	"/>
	<path class="st5" d="M846.8,314.7l0.8,2.1V307h14.7v15.9h-12.5l0.4,1h13.1V306h-16.7v8.2C846.7,314.4,846.7,314.5,846.8,314.7z"/>
	<polygon class="st7" points="569,336.6 571.6,337.5 574.9,328.5 571.9,328.5 	"/>
	<polygon class="st7" points="595.4,338.7 593.4,344.3 595.4,344.3 	"/>
	<polygon class="st7" points="581.2,341.1 583.3,341.8 588.2,328.5 585.9,328.5 	"/>
	<polygon class="st7" points="558.1,332.6 559.3,333 561,328.5 558.1,328.5 	"/>
	<polygon class="st5" points="571.9,328.5 574.9,328.5 575.3,327.5 572.3,327.5 	"/>
	<polygon class="st5" points="596.4,336 595.4,338.7 595.4,344.3 593.4,344.3 593,345.3 596.4,345.3 	"/>
	<polygon class="st5" points="557.1,330.9 557.1,332.2 558.1,332.6 558.1,328.5 561,328.5 561.4,327.5 558.3,327.5 	"/>
	<polygon class="st5" points="585.9,328.5 588.2,328.5 588.6,327.5 586.2,327.5 	"/>
	<rect x="601.1" y="328.5" class="st7" width="15.9" height="15.9"/>
	<path class="st5" d="M617.9,327.5H600v17.9h17.9V327.5z M616.9,344.3H601v-15.9h15.9V344.3z"/>
	<rect x="622.6" y="328.5" class="st7" width="15.9" height="15.9"/>
	<path class="st5" d="M621.6,345.3h17.9v-17.9h-17.9V345.3z M622.6,328.5h15.9v15.9h-15.9V328.5z"/>
	<rect x="644.1" y="328.5" class="st7" width="15.9" height="15.9"/>
	<path class="st5" d="M643.1,345.3H661v-17.9h-17.9V345.3z M644.1,328.5H660v15.9h-15.9V328.5z"/>
	<rect x="665.6" y="328.5" class="st7" width="15.9" height="15.9"/>
	<path class="st5" d="M664.6,345.3h17.9v-17.9h-17.9V345.3z M665.6,328.5h15.9v15.9h-15.9V328.5z"/>
	<rect x="687.1" y="328.5" class="st7" width="15.9" height="15.9"/>
	<path class="st5" d="M686.1,345.3H704v-17.9h-17.9V345.3z M687.1,328.5H703v15.9h-15.9V328.5z"/>
	<rect x="708.6" y="328.5" class="st7" width="15.9" height="15.9"/>
	<path class="st5" d="M707.6,345.3h17.9v-17.9h-17.9V345.3z M708.6,328.5h15.9v15.9h-15.9V328.5z"/>
	<rect x="730.1" y="328.5" class="st7" width="15.9" height="15.9"/>
	<path class="st5" d="M729.1,345.3H747v-17.9h-17.9V345.3z M730.1,328.5H746v15.9h-15.9V328.5z"/>
	<rect x="751.6" y="328.5" class="st7" width="15.9" height="15.9"/>
	<rect x="750.6" y="327.5" class="st7" width="0" height="17.9"/>
	<path class="st5" d="M750.6,345.3h17.9v-17.9h-17.9V345.3z M751.6,328.5h15.9v15.9h-15.9V328.5z"/>
	<rect x="773.1" y="328.5" class="st7" width="15.9" height="15.9"/>
	<rect x="772.1" y="327.5" class="st7" width="0" height="17.9"/>
	<path class="st5" d="M772.1,345.3H790v-17.9h-17.9V345.3z M773.1,328.5H789v15.9h-15.9V328.5z"/>
	<rect x="793.6" y="327.5" class="st7" width="0" height="17.9"/>
	<polygon class="st7" points="794.6,344.3 805.5,344.3 799.7,328.5 794.6,328.5 	"/>
	<polygon class="st5" points="810.3,327.5 811.4,330.6 811.4,327.5 	"/>
	<polygon class="st5" points="794.6,344.3 794.6,328.5 799.7,328.5 799.3,327.5 793.6,327.5 793.6,345.3 805.9,345.3 805.5,344.3 	
		"/>
	<polygon class="st7" points="817.8,341.5 816.1,336.8 816.1,342.1 	"/>
	<polygon class="st7" points="827.4,338 830.1,337 826.9,328.5 824,328.5 	"/>
	<polygon class="st7" points="815.1,340.6 815.1,334.1 815.1,334.1 	"/>
	<polygon class="st5" points="826.9,328.5 826.6,327.5 823.6,327.5 824,328.5 	"/>
	<polygon class="st5" points="815.7,342.3 816.1,342.1 816.1,336.8 815.1,334.1 815.1,340.6 	"/>
	<polygon class="st7" points="862.3,328.5 851.9,328.5 857.7,344.3 862.3,344.3 	"/>
	<polygon class="st7" points="839.7,333.5 842.4,332.5 840.9,328.5 837.9,328.5 	"/>
	<polygon class="st5" points="837.9,328.5 840.9,328.5 840.5,327.5 837.5,327.5 	"/>
	<polygon class="st5" points="862.3,328.5 862.3,344.3 857.7,344.3 858,345.3 863.3,345.3 863.3,327.5 851.5,327.5 851.9,328.5 	"/>
	<path class="st7" d="M605.4,350h-5.7c1.7,0.5,2.9,1.7,3.5,3.3c0.4,1,0.4,2.2,0,3.3v0.1l-1,2.8l-2.3,6.3h5.7V350H605.4z"/>
	<path class="st7" d="M586.1,364.2l-0.2,0.6c-0.1,0.2-0.1,0.3-0.2,0.4l4.2-2.3l1-2.6l2.6-7.1c0.6-1.7,2-2.9,3.7-3.4h-5.8
		L586.1,364.2z"/>
	<path class="st5" d="M606.4,349h-14.8l-0.4,1h5.8c0.8-0.2,1.7-0.3,2.5,0h0.1h5.7v15.9h-5.7l-0.4,1h7V349H606.4z"/>
	<rect x="611.1" y="350" class="st7" width="15.9" height="15.9"/>
	<path class="st5" d="M610.1,366.8H628V349h-17.9V366.8z M611.1,350H627v15.9h-15.9V350z"/>
	<rect x="632.6" y="350" class="st7" width="15.9" height="15.9"/>
	<path class="st5" d="M631.6,366.8h17.9V349h-17.9V366.8z M632.6,350h15.9v15.9h-15.9V350z"/>
	<rect x="654.1" y="350" class="st7" width="15.9" height="15.9"/>
	<path class="st5" d="M653.1,366.8H671V349h-17.9V366.8z M654.1,350H670v15.9h-15.9V350z"/>
	<rect x="675.6" y="350" class="st7" width="15.9" height="15.9"/>
	<path class="st5" d="M674.6,366.8h17.9V349h-17.9V366.8z M675.6,350h15.9v15.9h-15.9V350z"/>
	<rect x="697.1" y="350" class="st7" width="15.9" height="15.9"/>
	<path class="st5" d="M696.1,366.8H714V349h-17.9V366.8z M697.1,350H713v15.9h-15.9V350z"/>
	<rect x="718.6" y="350" class="st7" width="15.9" height="15.9"/>
	<path class="st5" d="M717.6,366.8h17.9V349h-17.9V366.8z M718.6,350h15.9v15.9h-15.9V350z"/>
	<rect x="740.1" y="350" class="st7" width="15.9" height="15.9"/>
	<path class="st5" d="M739.1,366.8H757V349h-17.9V366.8z M740.1,350H756v15.9h-15.9V350z"/>
	<rect x="760.6" y="349" class="st7" width="0" height="17.9"/>
	<rect x="761.6" y="350" class="st7" width="15.9" height="15.9"/>
	<path class="st5" d="M760.6,366.8h17.9V349h-17.9V366.8z M761.6,350h15.9v15.9h-15.9V350z"/>
	<path class="st7" d="M783.1,350v15.9H799v-0.4l-2-5.4l-1-2.8c-0.1-0.2-0.1-0.4-0.2-0.6c-0.2-1-0.2-2,0.1-2.9
		c0.5-1.4,1.6-2.6,3.1-3.1V350H783.1z"/>
	<rect x="782.1" y="349" class="st7" width="0" height="17.9"/>
	<path class="st5" d="M798.9,365.8H783V350h15.9v0.6c0.2-0.1,0.3-0.1,0.5-0.2c0.2,0,0.3-0.1,0.5-0.1V349H782v17.9h17.4l-0.5-1.4
		V365.8z"/>
	<path class="st7" d="M804.6,352c0.4,0.5,0.8,1.1,1,1.7l2.1,5.9l1.4,3.8l4.2,2.3c-0.1-0.1-0.2-0.3-0.2-0.4l-0.9-2.3l-4.8-13h-3v2
		H804.6z"/>
	<rect x="803.6" y="349" class="st7" width="0" height="2.2"/>
	<path class="st5" d="M804.6,352v-2h3l-0.4-1h-3.6v2.2C803.9,351.4,804.3,351.7,804.6,352z"/>
	<polygon class="st7" points="859.7,350 861.4,354.6 862.3,356.8 862.3,350 	"/>
	<polygon class="st5" points="862.3,350 862.3,356.8 862.5,357.5 862.9,358.7 863.3,359.5 863.3,349 859.4,349 859.7,350 	"/>
	<path class="st7" d="M583.9,377.8l-12.7,6.8h-0.1c-1,0.5-2.1,0.7-3.2,0.5c-0.4-0.1-0.9,0-1.2,0.1c-0.2,0.1-0.4,0.2-0.6,0.3
		c-0.5,0.3-0.8,0.7-1,1.2l-0.2,0.6H584L583.9,377.8L583.9,377.8z"/>
	<polygon class="st5" points="584.9,377.3 583.9,377.8 583.9,387.3 564.8,387.3 564.5,388.3 584.9,388.3 	"/>
	<polygon class="st7" points="605.4,387.3 605.4,371.5 595.8,371.5 595.8,371.5 589.6,374.8 589.6,387.3 	"/>
	<path class="st5" d="M606.4,388.3v-17.9h-9.2c-0.5,0.4-1,0.8-1.4,1h9.6v15.9h-15.9v-12.5l-1,0.5v13H606.4z"/>
	<rect x="611.1" y="371.5" class="st7" width="15.9" height="15.9"/>
	<path class="st5" d="M610.1,388.3H628v-17.9h-17.9V388.3z M611.1,371.5H627v15.9h-15.9V371.5z"/>
	<rect x="632.6" y="371.5" class="st7" width="15.9" height="15.9"/>
	<path class="st5" d="M631.6,388.3h17.9v-17.9h-17.9V388.3z M632.6,371.5h15.9v15.9h-15.9V371.5z"/>
	<rect x="654.1" y="371.5" class="st7" width="101.9" height="15.9"/>
	<path class="st5" d="M653.1,388.3H757v-17.9H653.1V388.3z M654.1,371.5H756v15.9H654.1V371.5z"/>
	<rect x="761.6" y="371.5" class="st7" width="15.9" height="15.9"/>
	<rect x="760.6" y="370.5" class="st7" width="0" height="17.9"/>
	<path class="st5" d="M760.6,388.3h17.9v-17.9h-17.9V388.3z M761.6,371.5h15.9v15.9h-15.9V371.5z"/>
	<rect x="782.1" y="370.5" class="st7" width="0" height="17.9"/>
	<rect x="783.1" y="371.5" class="st7" width="15.9" height="15.9"/>
	<path class="st5" d="M799.9,388.3v-17.9H782v17.9H799.9z M783.1,371.5H799v15.9h-15.9V371.5z"/>
	<polygon class="st7" points="804.6,387.3 820.1,387.3 820.1,381 819,380.4 804.6,380.4 	"/>
	<rect x="803.6" y="379.4" class="st7" width="0" height="8.9"/>
	<polygon class="st5" points="820.1,387.3 804.6,387.3 804.6,380.4 819,380.4 817.2,379.4 803.6,379.4 803.6,388.3 821.1,388.3 
		821.1,381.5 820.1,381 	"/>
	<path class="st7" d="M834,387.3l-0.1-0.2c-0.2-0.4-0.4-0.8-0.8-1.1c-0.2-0.2-0.4-0.3-0.7-0.4c-0.5-0.2-1-0.2-1.5-0.1
		c-0.6,0.1-1.3,0.1-2,0c-0.5-0.1-0.9-0.2-1.3-0.5l-2.1-1.1v3.4L834,387.3L834,387.3z"/>
	<polygon class="st5" points="825.7,387.3 825.7,383.9 824.7,383.4 824.7,388.3 834.4,388.3 834,387.3 	"/>
	<g>
		<path class="st10" d="M556.2,318.3c0.3,0.1,0.6,0.2,0.9,0.4c0.4,0.2,0.7,0.4,1,0.6c0.7,0.5,1.3,1,1.7,1.6c0-0.1,0.1-0.2,0.1-0.2
			l0.9-2.6c0.8-2.2-0.3-4.6-2.5-5.4l0,0c-0.1,0-0.2,0-0.3-0.1c-0.3-0.1-0.7-0.2-1-0.2c-1.8-0.1-3.5,1-4.2,2.7l-0.9,2.6
			c0,0.1,0,0.2-0.1,0.3C553,317.6,554.6,317.7,556.2,318.3z"/>
	</g>
	<g>
		<path class="st10" d="M570.5,317.7c1.6,0.6,2.9,1.5,3.6,2.5c0-0.1,0.1-0.2,0.1-0.2l0.9-2.6c0.8-2.2-0.3-4.6-2.5-5.4l0,0
			c-2.2-0.8-4.6,0.3-5.4,2.5l-0.9,2.6c0,0.1,0,0.2-0.1,0.3C567.3,317,568.8,317.1,570.5,317.7z"/>
	</g>
	<g>
		<path class="st10" d="M583.9,313.4c0.3,0.1,0.7,0.1,1,0.2s0.6,0.1,0.8,0.3c1.1,0.4,2.1,1,2.8,1.6c0.3,0.3,0.6,0.6,0.8,0.8
			c0-0.1,0.1-0.2,0.1-0.2l0.1-0.3l0.8-2.3c0.6-1.5,0.2-3.1-0.8-4.3c-0.3-0.3-0.6-0.6-1-0.8c-0.2-0.1-0.4-0.2-0.7-0.3l0,0
			c-1-0.4-2-0.3-3,0c-0.4,0.1-0.7,0.3-1,0.5c-0.6,0.5-1.2,1.1-1.5,1.9l-0.9,2.6c0,0.1,0,0.2-0.1,0.3
			C582.1,313.3,583,313.3,583.9,313.4z"/>
	</g>
	<g>
		<path class="st10" d="M594.7,325.9c1.6,0.6,2.9,1.5,3.6,2.5c0-0.1,0.1-0.2,0.1-0.2l0.9-2.6c0.2-0.6,0.3-1.2,0.2-1.7
			c0-0.3-0.1-0.7-0.2-1c-0.4-1.2-1.3-2.2-2.6-2.7l0,0c-2.2-0.8-4.6,0.3-5.4,2.5l-0.1,0.2l-0.4,1l-0.5,1.4c0,0.1,0,0.2-0.1,0.3
			C591.4,325.2,593,325.3,594.7,325.9z"/>
	</g>
	<g>
		<path class="st10" d="M846.6,316.8L846.6,316.8L846.6,316.8l-0.5-1.2c-0.5-1.4-1.8-2.4-3.2-2.7c-0.3-0.1-0.7-0.1-1-0.1
			c-0.4,0-0.8,0.1-1.2,0.2c-2.2,0.8-3.3,3.2-2.5,5.4l0.9,2.6c0,0.1,0.1,0.2,0.1,0.2c0.5-0.8,1.5-1.5,2.7-2.1
			c0.3-0.1,0.6-0.3,0.9-0.4h0.1c1.3-0.5,2.6-0.6,3.6-0.5l0,0l0,0c0.2,0,0.4,0,0.6,0.1c0-0.1,0-0.2-0.1-0.3L846.6,316.8z"/>
	</g>
	<g>
		<path class="st10" d="M831.9,314.9c-0.8-2.2-3.2-3.3-5.4-2.5c-0.1,0-0.2,0.1-0.4,0.2c-0.4,0.2-0.7,0.4-1,0.7l0,0l0,0
			c-1.2,1.1-1.8,2.9-1.1,4.6l0.9,2.6c0,0.1,0.1,0.2,0.1,0.2l0.1-0.1l0,0l0,0c0.3-0.3,0.6-0.7,1-1c0.7-0.5,1.5-1,2.5-1.4
			c1.6-0.6,3.2-0.7,4.3-0.4c0-0.1,0-0.2-0.1-0.3L831.9,314.9z"/>
	</g>
	<g>
		<path class="st10" d="M816.6,311c-0.8-2.2-3.2-3.3-5.4-2.5s-3.3,3.2-2.5,5.4l0.9,2.6c0,0.1,0.1,0.2,0.1,0.2
			c0.6-0.9,1.9-1.9,3.6-2.5s3.2-0.7,4.3-0.4c0-0.1,0-0.2-0.1-0.3L816.6,311z"/>
	</g>
	<g>
		<path class="st10" d="M808,323.8l-0.3-0.8c0-0.1-0.1-0.2-0.1-0.2c-0.6-1.3-1.7-2.1-3-2.4c-0.3-0.1-0.7-0.1-1-0.1l0,0
			c-0.4,0-0.9,0.1-1.3,0.2c-1.1,0.4-1.9,1.2-2.3,2.1c-0.2,0.4-0.3,0.8-0.4,1.2c-0.1,0.7-0.1,1.4,0.2,2.2l0.5,1.5l0.4,1v0.1
			c0,0.1,0.1,0.2,0.1,0.2c0.1-0.1,0.2-0.2,0.3-0.3c0.3-0.3,0.7-0.7,1.1-1c0.6-0.4,1.4-0.8,2.2-1.1c1.6-0.6,3.2-0.7,4.3-0.4
			c0-0.1,0-0.2-0.1-0.3L808,323.8z"/>
	</g>
	<g>
		<polygon class="st8" points="561.3,401.5 562.7,397.9 564.6,393.1 563,392.5 549.2,387 532.5,380.4 532.4,380.4 529.7,379.3 
			526.4,387.7 530.4,389.3 		"/>
	</g>
	<g>
		<polygon class="st8" points="867.4,380.5 866.6,380.8 863.3,382.2 847.6,388.3 836.1,392.9 834.4,393.5 836.2,397.9 837.7,401.9 
			847.9,397.9 869.5,389.4 871.5,388.6 872.7,388.1 871.5,385.2 869.4,379.7 		"/>
	</g>
	<g>
		<path class="st11" d="M563,392.5l1.3-3.7l0.2-0.5l0.4-1l0.2-0.6c0.2-0.5,0.6-1,1-1.2c0.2-0.1,0.4-0.2,0.6-0.3
			c0.4-0.1,0.8-0.1,1.2-0.1c1.1,0.2,2.2,0,3.2-0.5h0.1l12.7-6.8l1-0.5l3.6-2l1-0.5l6.2-3.3l0,0c0.4-0.2,1-0.6,1.4-1
			c0.7-0.6,1.3-1.4,1.6-2.1l0.6-1.5l0.4-1l2.3-6.3c-0.5-0.4-1.2-0.7-1.9-0.9c-1.6-0.6-3.2-0.7-4.3-0.4c0-0.1,0-0.2,0.1-0.3l0.1-0.2
			l0.9-2.4c0.8-2.2,3.2-3.3,5.4-2.5l0,0c0.3,0.1,0.6,0.3,0.8,0.4c-0.5-1.5-1.8-2.8-3.5-3.3h-0.1c-0.9-0.2-1.7-0.2-2.5,0
			c-1.6,0.4-3.1,1.7-3.7,3.4l-2.6,7.1l-1,2.6l-4.2,2.3c0.1-0.1,0.2-0.3,0.2-0.4l0.2-0.6l5.2-14.2l0.4-1l1.3-3.6l0.4-1l2.1-5.6l1-2.7
			l3.9-10.6c0.2-0.5,0.3-1.1,0.3-1.6c0-0.3,0-0.7,0-1c-0.2-1.7-1.2-3.2-2.8-4c-2.8-1.3-6,0-7.1,2.9l-0.4,1.2l-0.4,1l-1.3,3.6l-0.4,1
			l-4.9,13.4l-2.1-0.8l4.6-12.6l0.4-1l2.4-6.4l1-2.7l1.9-5c0.8-2.3,0.1-4.9-1.9-6.2c-0.2-0.1-0.4-0.3-0.7-0.4
			c-0.1-0.1-0.2-0.1-0.3-0.1c-1.2-0.5-2.5-0.5-3.6-0.1c-0.3,0.1-0.7,0.3-1,0.5c-0.9,0.6-1.7,1.5-2.1,2.6l-4.9,13.3l-0.4,1l-1.3,3.6
			l-0.4,1l-3.3,9.1l-2.6-1l3-8.1l0.4-1l1.3-3.6l0.4-1l2-5.6c0.9-2.5-0.1-5.4-2.5-6.6c-2.8-1.3-6,0-7.1,2.9l-3.4,9.3l-0.4,1l-1.3,3.6
			l-0.4,1l-1.7,4.6L558,333l-1-0.4l-0.4-0.2l0.4-1.2l1.3-3.4l1.3-3.6l0.4-1l1.8-4.8c0.9-2.5-0.1-5.4-2.5-6.6
			c-0.4-0.2-0.8-0.3-1.2-0.4c-0.3-0.1-0.7-0.1-1-0.1c-2.1,0-4.1,1.3-4.8,3.4l-3.1,8.4l-11.4,31.2l-1.5,4.1l-0.1,0.2l-2.3,6.2
			c-0.7,1.8-0.2,3.7,0.9,5.1c0.7,0.9,0.9,2.1,0.5,3.1l-2.8,7.8l16.7,6.6L563,392.5z M590.4,325.2l0.5-1.4l0.4-1l0.1-0.2
			c0.8-2.2,3.2-3.3,5.4-2.5l0,0c1.3,0.5,2.2,1.5,2.6,2.7c0.1,0.3,0.2,0.7,0.2,1c0,0.6,0,1.2-0.2,1.7l-0.9,2.6c0,0.1-0.1,0.2-0.1,0.2
			c-0.6-0.9-1.9-1.9-3.6-2.5c-1.6-0.6-3.2-0.7-4.3-0.4C590.4,325.4,590.4,325.3,590.4,325.2z M581.5,313.2l0.9-2.6
			c0.3-0.8,0.8-1.5,1.5-1.9c0.3-0.2,0.6-0.4,1-0.5c0.9-0.4,2-0.4,3,0l0,0c0.2,0.1,0.5,0.2,0.7,0.3c0.4,0.2,0.7,0.5,1,0.8
			c1,1.1,1.4,2.7,0.8,4.3l-0.8,2.3l-0.1,0.3c0,0.1-0.1,0.2-0.1,0.2c-0.2-0.3-0.5-0.6-0.8-0.8c-0.7-0.6-1.7-1.2-2.8-1.6
			c-0.3-0.1-0.6-0.2-0.8-0.3c-0.3-0.1-0.7-0.2-1-0.2c-0.9-0.1-1.8-0.1-2.5,0C581.5,313.4,581.5,313.3,581.5,313.2z M566.2,317.1
			l0.9-2.6c0.8-2.2,3.2-3.3,5.4-2.5l0,0c2.2,0.8,3.3,3.2,2.5,5.4l-0.9,2.6c0,0.1-0.1,0.2-0.1,0.2c-0.6-0.9-1.9-1.9-3.6-2.5
			c-1.6-0.6-3.2-0.7-4.3-0.4C566.2,317.2,566.2,317.1,566.2,317.1z M552,317.6l0.9-2.6c0.7-1.8,2.4-2.8,4.2-2.7c0.3,0,0.7,0.1,1,0.2
			c0.1,0,0.2,0,0.3,0.1l0,0c2.2,0.8,3.3,3.2,2.5,5.4l-0.9,2.6c0,0.1-0.1,0.2-0.1,0.2c-0.4-0.5-1-1.1-1.7-1.6c-0.3-0.2-0.6-0.4-1-0.6
			c-0.3-0.1-0.6-0.3-0.9-0.4c-1.6-0.6-3.2-0.7-4.3-0.4C551.9,317.8,551.9,317.7,552,317.6z"/>
	</g>
	<g>
		<path class="st10" d="M603.2,356.5c0.4-1.1,0.3-2.3,0-3.3c-0.3-0.2-0.5-0.3-0.8-0.4l0,0c-2.2-0.8-4.6,0.3-5.4,2.5l-0.9,2.4
			l-0.1,0.2c0,0.1,0,0.2-0.1,0.3c1.1-0.3,2.7-0.2,4.3,0.4c0.7,0.3,1.3,0.6,1.9,0.9l1-2.8C603.2,356.6,603.2,356.6,603.2,356.5z"/>
	</g>
	<g>
		<path class="st11" d="M863.3,382.2l3.3-1.3l-2.8-7.8c-0.4-1.1-0.2-2.3,0.5-3.1c1.2-1.4,1.6-3.3,0.9-5.1l-1.9-5.3l-0.3-0.8
			l-0.4-1.2l-0.3-0.7l-0.8-2.2l-1.7-4.6l-0.4-1l-1.3-3.6l-0.4-1l-5.8-15.9l-0.4-1l-1.3-3.6l-0.4-1l-2.2-6l-0.8-2.1
			c-0.1-0.2-0.1-0.3-0.2-0.5l0,0l0,0c-0.7-1.5-2.1-2.5-3.6-2.8c-0.3-0.1-0.7-0.1-1-0.1c-0.7,0-1.5,0.2-2.2,0.5
			c-2.4,1.2-3.4,4.1-2.5,6.6l1.6,4.4l0.4,1l1.3,3.6l0.4,1l1.5,4l-2.7,1l-1.8-5l-0.4-1l-1.3-3.6l-0.4-1l-3.3-8.9
			c-1-2.6-3.8-4-6.5-3.1c-0.2,0.1-0.4,0.1-0.6,0.2c-0.1,0.1-0.3,0.2-0.4,0.2l0,0l0,0c-2.1,1.3-3,4-2.1,6.4l2.1,5.7l0,0l0,0l0.1,0.4
			l1.3,3.6l0.4,1l3.1,8.5l-2.6,1l-3.5-9.5l-0.4-1l-2.2-5.9l-1-2.7L817,310c-0.5-1.4-1.6-2.5-2.9-3c-1.2-0.5-2.5-0.5-3.8,0
			c-0.1,0-0.2,0.1-0.3,0.1c-2.4,1.2-3.4,4.1-2.5,6.6l3.3,9.1l0.4,1l3.8,10.3l0,0l1,2.7l1.7,4.7l-1.7,0.6l-0.4,0.1l-0.6-1.7l0,0
			l-3.6-9.9l-1.2-3.2l-1.3-3.6l-0.4-1l-0.3-0.7c-0.6-1.7-2.1-2.9-3.7-3.2c-0.3-0.1-0.7-0.1-1-0.1l0,0l0,0c-0.8,0-1.6,0.1-2.3,0.5
			c-0.5,0.2-0.9,0.6-1.3,0.9c-0.4,0.4-0.7,0.9-1,1.4c-0.2,0.4-0.3,0.8-0.4,1.2c-0.1,0.3-0.1,0.7-0.1,1c0,0.7,0.1,1.4,0.3,2l0.6,1.6
			l0.4,1l5.8,15.9l0.4,1l1.3,3.6l0.4,1l4.8,13l0.9,2.3c0.1,0.2,0.1,0.3,0.2,0.4l-4.2-2.3l-1.4-3.8l-2.1-5.9c-0.2-0.7-0.6-1.2-1-1.7
			c-0.3-0.3-0.6-0.6-1-0.9l0,0c-1.1-0.7-2.3-1.1-3.6-0.9c-0.2,0-0.3,0-0.5,0.1c-0.2,0-0.3,0.1-0.5,0.2c-1.5,0.6-2.6,1.7-3.1,3.1
			c0.3-0.2,0.5-0.3,0.8-0.4c0.7-0.3,1.5-0.3,2.2-0.2c0.3,0.1,0.7,0.2,1,0.3c1,0.5,1.8,1.3,2.2,2.4l0.6,1.6l0.4,1
			c0,0.1,0,0.2,0.1,0.3c-0.8-0.2-2-0.2-3.2,0.1c-0.3,0.1-0.7,0.2-1,0.3h-0.1c-0.7,0.3-1.3,0.6-1.9,0.9l2,5.4l0.5,1.4l0.7,1.9
			c0.5,1.3,2,2.6,3,3.1l14,7.5l1.9,1l1,0.6l1,0.5l3.6,1.9l1,0.5l2.1,1.1c0.4,0.2,0.9,0.4,1.3,0.5c0.7,0.1,1.3,0.2,2,0
			c0.5-0.1,1,0,1.5,0.1c0.2,0.1,0.5,0.2,0.7,0.4c0.3,0.3,0.6,0.6,0.8,1.1l0.1,0.2l0.4,1l0.4,1.1l1.3,3.4l11.5-4.6L863.3,382.2z
			 M813.3,314.3c-1.6,0.6-2.9,1.5-3.6,2.5c0-0.1-0.1-0.2-0.1-0.2l-0.9-2.6c-0.8-2.2,0.3-4.6,2.5-5.4s4.6,0.3,5.4,2.5l0.9,2.6
			c0,0.1,0,0.2,0.1,0.3C816.5,313.6,814.9,313.7,813.3,314.3z M804.4,326.3c-0.8,0.3-1.6,0.7-2.2,1.1c-0.4,0.3-0.8,0.7-1.1,1
			c-0.1,0.1-0.2,0.2-0.3,0.3c0-0.1-0.1-0.2-0.1-0.2v-0.1l-0.4-1l-0.5-1.5c-0.3-0.7-0.3-1.5-0.2-2.2c0.1-0.4,0.2-0.8,0.4-1.2
			c0.5-0.9,1.3-1.7,2.3-2.1c0.4-0.2,0.9-0.2,1.3-0.2l0,0l0,0c0.3,0,0.7,0,1,0.1c1.3,0.3,2.4,1.1,3,2.4c0,0.1,0.1,0.2,0.1,0.2
			l0.3,0.8l0.7,1.8c0,0.1,0,0.2,0.1,0.3C807.6,325.6,806,325.7,804.4,326.3z M828.6,318.2c-1,0.4-1.8,0.8-2.5,1.4
			c-0.4,0.3-0.7,0.7-1,1l0,0l0,0l-0.1,0.1c0-0.1-0.1-0.2-0.1-0.2l-0.9-2.6c-0.6-1.7-0.1-3.5,1.1-4.6l0,0l0,0c0.3-0.3,0.6-0.5,1-0.7
			c0.1-0.1,0.2-0.1,0.4-0.2c2.2-0.8,4.6,0.3,5.4,2.5l0.9,2.6c0,0.1,0,0.2,0.1,0.3C831.8,317.5,830.2,317.6,828.6,318.2z
			 M846.6,318.2L846.6,318.2c-1-0.1-2.3,0-3.6,0.5h-0.1c-0.3,0.1-0.6,0.2-0.9,0.4c-1.2,0.6-2.2,1.3-2.7,2.1c0-0.1-0.1-0.2-0.1-0.2
			l-0.9-2.6c-0.8-2.2,0.3-4.6,2.5-5.4c0.4-0.1,0.8-0.2,1.2-0.2c0.3,0,0.7,0,1,0.1c1.4,0.3,2.7,1.2,3.2,2.7l0.5,1.2l0,0l0,0l0.5,1.3
			c0,0.1,0,0.2,0.1,0.3C847,318.3,846.8,318.3,846.6,318.2z"/>
	</g>
	<g>
		<path class="st10" d="M795.7,356.5c0,0.2,0.1,0.4,0.2,0.6l1,2.8c0.5-0.4,1.2-0.7,1.9-0.9h0.1c0.3-0.1,0.7-0.2,1-0.3
			c1.2-0.3,2.4-0.3,3.2-0.1c0-0.1,0-0.2-0.1-0.3l-0.4-1l-0.6-1.6c-0.4-1.1-1.2-1.9-2.2-2.4c-0.3-0.1-0.7-0.2-1-0.3
			c-0.7-0.1-1.5-0.1-2.2,0.2c-0.3,0.1-0.6,0.3-0.8,0.4C795.6,354.6,795.5,355.6,795.7,356.5z"/>
	</g>
	<g>
		<path class="st26" d="M885.4,383.1l-12.8,5l-1.2,0.5v3.8c0,0.7-0.1,1.3-0.4,1.9c0.8,2.4,1.7,5.1,2.7,8.2c0.9,2.8,1.9,5.9,3,9.2h18
			c-1.8-5.6-3.4-10.9-5-15.5C888.1,391,886.6,386.5,885.4,383.1z"/>
	</g>
	<g>
		<path class="st26" d="M871,393.9c0,0.1,0.1,0.3,0.1,0.4c0.2-0.6,0.4-1.3,0.4-1.9v-3.8l-2,0.8C869.9,390.7,870.4,392.2,871,393.9z"
			/>
	</g>
	<g>
		<path class="st26" d="M526,402.4c1-3.2,2-6.1,2.8-8.6c0.6-1.7,1.1-3.2,1.5-4.6l-4-1.6l-12-4.7c-1.1,3.4-2.6,7.9-4.3,13.1
			c-1.5,4.7-3.2,10-5,15.6h18C524.1,408.4,525.1,405.3,526,402.4z"/>
	</g>
	<g>
		<path class="st14" d="M561.3,401.5l-30.9-12.2c-0.4,1.3-1,2.9-1.5,4.6c-0.8,2.5-1.8,5.4-2.8,8.6c-0.9,2.9-1.9,6-3,9.3h36.1
			c1.2-3.3,2.4-6.5,3.7-9.6L561.3,401.5z"/>
	</g>
	<g>
		<path class="st14" d="M869.5,389.4l-21.6,8.5l-10.2,4l-0.8,0.3c1.3,3.1,2.5,6.3,3.7,9.5h36.1c-1-3.3-2-6.4-3-9.2
			c-1-3-1.9-5.7-2.7-8.2c0-0.1-0.1-0.3-0.1-0.4C870.4,392.2,869.9,390.7,869.5,389.4z"/>
	</g>
	<polygon class="st7" points="0,0 0,411.7 3,411.7 3,3 1365,3 1365,411.7 1368,411.7 1368,0 	"/>
</g>
<g>
	<g>
		<path class="st20" d="M296,218.3L296,218.3c0.4,0,0.8,0,1.2,0.1C296.8,218.3,296.4,218.3,296,218.3z"/>
		<path class="st20" d="M297.2,218.4c0.4,0.1,0.7,0.2,1,0.4C297.9,218.6,297.5,218.5,297.2,218.4z"/>
		<path class="st20" d="M298.2,218.8c0.3,0.2,0.6,0.3,0.8,0.6C298.8,219.1,298.5,218.9,298.2,218.8z"/>
		<path class="st7" d="M242.9,411.7h50.8c3.4,0,6.1-2.8,6.1-6.1V288.9c0-3.4-2.8-6.1-6.1-6.1h-2.6l-47.4,127.1
			C243.5,410.5,243.2,411.1,242.9,411.7z"/>
		<path class="st14" d="M137,218.3H86.1c-3.4,0-6.1,2.8-6.1,6.1v116.7c0,3.4,2.8,6.1,6.1,6.1h2.6l47.4-127.1
			C136.4,219.5,136.7,218.9,137,218.3z"/>
		<path class="st7" d="M214,218.3h-57.7c-3.4,0-7.2,2.8-8.4,6.1L80.4,405.6c-1.3,3.4,0.5,6.1,3.8,6.1h1.8h55.8
			c2.9,0,6.2-2.1,7.8-4.8c0.2-0.4,0.5-0.8,0.6-1.3l67.5-181.1c0.5-1.3,0.5-2.5,0.2-3.5C217.6,219.4,216.1,218.3,214,218.3z"/>
		<path class="st7" d="M299,219.4c-0.2-0.2-0.5-0.4-0.8-0.6c-0.3-0.2-0.6-0.3-1-0.4c-0.4-0.1-0.8-0.1-1.2-0.1h-57.7
			c-3.4,0-7.2,2.8-8.4,6.1l-67.5,181.1c-1.3,3.4,0.5,6.1,3.8,6.1h57.7c3.4,0,7.2-2.8,8.4-6.1l67.5-181.1c0.3-0.8,0.4-1.6,0.4-2.4
			c0-0.5-0.2-1.1-0.4-1.5C299.7,220.1,299.4,219.7,299,219.4z"/>
	</g>
	<circle class="st14" cx="114.6" cy="170.8" r="34.6"/>
</g>
</svg>
