<?xml version="1.0" encoding="utf-8"?>
<!-- Generator: Adobe Illustrator 21.0.2, SVG Export Plug-In . SVG Version: 6.00 Build 0)  -->
<svg version="1.1" id="Layer_1" xmlns="http://www.w3.org/2000/svg" xmlns:xlink="http://www.w3.org/1999/xlink" x="0px" y="0px"
	 viewBox="0 0 32.7 26.2" style="enable-background:new 0 0 32.7 26.2;" xml:space="preserve">
<g>
	<path d="M22.9,15v-2H32l0.6-1.4c0.4-0.9-0.5-1.9-1.6-1.9h-5.8l-1.9-8.6C23,0.5,22.3,0,21.6,0H11.1c-0.7,0-1.4,0.5-1.6,1.2l-2,8.6
		H1.7c-1.2,0-2,1-1.6,1.9l5.7,13.5c0.2,0.6,0.9,1,1.6,1h17.9c0.7,0,1.4-0.4,1.6-1l1-2.3h-9.5v-2h10.4l0.8-2h-8.9v-2h9.7l0.8-2
		L22.9,15L22.9,15z M13.8,13.1h2.3v2h-2.3V13.1z M9.3,15v-2h2.3v2H9.3z M11.5,18.9v-2h2.3v2H11.5z M16.1,22.9h-2.3v-2h2.3V22.9z
		 M18.3,18.9H16v-2h2.3V18.9z M20.6,15h-2.3v-2h2.3V15z M10.8,9.8l0.8-5.3c0.1-0.7,0.6-1.2,1.1-1.2H20c0.5,0,1,0.5,1.1,1.2l0.8,5.3
		H10.8z"/>
</g>
</svg>
