<?xml version="1.0" encoding="utf-8"?>
<!-- Generator: Adobe Illustrator 21.0.2, SVG Export Plug-In . SVG Version: 6.00 Build 0)  -->
<svg version="1.1" id="Layer_2" xmlns="http://www.w3.org/2000/svg" xmlns:xlink="http://www.w3.org/1999/xlink" x="0px" y="0px"
	 viewBox="0 0 924 672" style="enable-background:new 0 0 924 672;" xml:space="preserve">
<style type="text/css">
	.st0{fill:#B3B3B3;}
	.st1{fill:#F2F2F2;}
	.st2{fill:#808080;}
	.st3{fill:#999999;}
	.st4{fill:none;}
	.st5{font-family:'Evolventa-Bold';}
	.st6{font-size:23px;}
	.st7{font-family:'Evolventa-Regular';}
	.st8{font-size:19px;}
	.st9{fill:#20746E;}
	.st10{fill:#252122;}
	.st11{fill:#2BBA98;}
	.st12{fill:#B2DDCA;}
	.st13{fill:#2EBA98;}
	.st14{fill:#FEFEFE;}
	.st15{font-size:32px;}
	.st16{fill:#003333;}
	.st17{font-family:'BelweBT-Bold';}
	.st18{fill:#E4332B;}
	.st19{fill:#0D3648;}
</style>
<g>
	<g>
		<path class="st0" d="M880,0H44C19.7,0,0,19.7,0,44v444.2c0,24.3,19.7,44,44,44h290.5h256H880c24.3,0,44-19.7,44-44V44
			C924,19.7,904.3,0,880,0z M462,524.8c-8.8,0-15.9-7.1-15.9-15.9c0-8.8,7.1-15.9,15.9-15.9s15.9,7.1,15.9,15.9
			S470.8,524.8,462,524.8z M897,446.3c0,15.2-12.3,27.5-27.5,27.5h-817c-15.2,0-27.5-12.3-27.5-27.5V50.5C25,35.3,37.3,23,52.5,23
			h817c15.2,0,27.5,12.3,27.5,27.5V446.3z"/>
	</g>
	<g>
		<path class="st1" d="M869.5,23h-817C37.3,23,25,35.3,25,50.5v395.8c0,15.2,12.3,27.5,27.5,27.5h817c15.2,0,27.5-12.3,27.5-27.5
			V50.5C897,35.3,884.7,23,869.5,23z"/>
	</g>
	<g>
		<circle class="st1" cx="462" cy="508.9" r="15.9"/>
	</g>
	<g>
		<rect x="334.5" y="532.2" class="st2" width="256" height="17.8"/>
	</g>
	<g>
		<polygon class="st0" points="213.3,672 711.7,672 590.5,600.3 334.5,600.3 		"/>
	</g>
	<g>
		<polygon class="st3" points="334.5,593.3 334.5,600.3 590.5,600.3 590.5,593.3 590.5,550 334.5,550 		"/>
	</g>
</g>
<rect x="44" y="43.3" class="st4" width="831" height="364"/>
<text transform="matrix(1 0 0 1 364.1318 60.2712)"><tspan x="0" y="0" class="st5 st6">VII Международная конференция</tspan><tspan x="-107.5" y="27.6" class="st5 st6">«Воспитание и обучение детей младшего возраста» </tspan><tspan x="132.7" y="55.2" class="st5 st6">(ECCE 2018)</tspan><tspan x="59.9" y="97.8" class="st5 st6">МГУ имени М.В. Ломоносова, Москва </tspan><tspan x="59.9" y="125.4" class="st5 st6">16-20 мая 2018 года</tspan><tspan x="-320.1" y="158.2" class="st7 st8">16-20 мая 2018 года в Москве состоится VII Международная научно-практическая </tspan><tspan x="-320.1" y="181" class="st7 st8">конференция «Воспитание и обучение детей младшего возраста» (ECCE 2018) — </tspan><tspan x="-320.1" y="203.8" class="st7 st8">крупнейшее Российское мероприятие, посвящённое педагогике и психологии </tspan><tspan x="-320.1" y="226.6" class="st7 st8">детства, содержанию и организации дошкольного образования.</tspan><tspan x="-320.1" y="259.4" class="st5 st8">Организаторы Конференции:</tspan><tspan x="-33.8" y="259.4" class="st7 st8"> МГУ имени М.В. Ломоносова и Московская </tspan><tspan x="-320.1" y="282.2" class="st7 st8">педагогическая академия дошкольного образования (МПАДО).</tspan><tspan x="-5.5" y="327.8" class="st9 st5 st8" style="text-decoration: underline;">ecceconference.com</tspan></text>
<g>
	<path class="st10" d="M280.3,174.9c-0.3,0.3-0.2,0.8-0.3,1.2c-1.2,4-3.9,6.5-8,7.2c-1.5,0.3-3,0-4.5,0.1c-2,0-3.8-0.7-5.4-1.9
		c-3.6-2.7-4.9-7.7-3.2-11.6c0.9-1.9,2.4-3.3,4.1-4.4c0.4-0.3,0.9-0.5,1.3-0.8c-0.1-0.2-0.3-0.3-0.5-0.4c-2.1-1.3-3.7-3-4-5.6
		c-0.5-2.9,0.7-5.3,2.8-7.3c4-3.6,10.5-3.2,14.1,0.7c2.5,2.8,2.9,6.9,0.8,9.7c-0.7,1-1.7,1.8-2.7,2.4c-0.2,0.1-0.3,0.2-0.6,0.4
		c0.9,0.5,1.7,1,2.5,1.5c1.9,1.4,3.2,3.2,3.5,5.6c0,0,0.1,0.1,0.1,0.1C280.3,173,280.3,174,280.3,174.9z M269.2,180.5
		c1.1,0,2.2-0.1,3.2-0.5c4.4-1.6,6.5-7.3,2.5-11.3c-3.2-3.2-9-3-12,0.9c-2.6,3.4-1.6,8,2.1,10C266.3,180.2,267.7,180.5,269.2,180.5z
		 M269.1,163.5c1.4,0,2.4-0.3,3.4-0.8c3.2-1.8,4.7-6.5,0.5-9.4c-2.1-1.4-6-1.4-8.3,0.8c-1.8,1.7-2.2,4.2-0.8,6.2
		C265.1,162.3,266.9,163.4,269.1,163.5z"/>
	<path class="st11" d="M126.9,128.6c0.3-2.7,0.8-5.4,1.2-8.1c1.1-6.2,2.3-12.4,3.1-18.7c0.3-2.2,0.5-4.4,0.4-6.6
		c-0.1-2.8-1.2-3.7-4.3-3.5c-2.9,0.2-5.6,1.3-8.3,2.4c-3.6,1.5-7,3.3-10.6,4.7c-1.6,0.6-3.3,1.3-5.1,1.3c-0.1,0-0.3,0-0.4,0
		c-1.4-0.1-2-1.1-1.4-2.3c0.6-1.3,1.5-2.3,2.4-3.3c3-3.2,6.4-5.9,9.8-8.6c8.4-6.6,17.2-12.7,26.1-18.8c8.5-5.7,17.1-11.2,26.1-16
		c3.1-1.7,6.3-3.2,9.7-4.3c0.9-0.3,1.7-0.5,2.6-0.5c1.5,0,2.1,0.8,1.7,2.3c-0.2,0.9-0.7,1.7-1.1,2.4c-1.6,2.6-3.6,5-5.6,7.3
		c-3.6,4.1-7.2,8.1-10.8,12.2c-1,1.2-2,2.4-2.9,3.6c-2,2.9-2.2,6.1-0.9,9.3c2.4,5.9,5,11.7,7.5,17.5c1.9,4.5,3.8,9.1,5.7,13.6
		c-0.1,0.1-0.3,0.2-0.4,0.2c-4.1,1.7-8.3,3.3-12.5,4.8c-1.9-2.5-4-4.9-6.4-7c-1-0.8-2-1.6-3.2-2c-1.1-0.4-2-0.3-2.9,0.5
		c-0.4,0.3-0.7,0.6-1,1c-1.4,1.6-2.3,3.5-3.2,5.5c-1.2,2.7-2.3,5.5-3.4,8.2c-0.4,0.3-0.9,0.3-1.4,0.4
		C133.8,127.1,130.4,127.9,126.9,128.6z"/>
	<path class="st12" d="M158.8,119.8c4.2-1.5,8.4-3,12.5-4.8c0.2-0.1,0.3-0.1,0.4-0.2c0.9-0.2,1.7-0.7,2.6-1c3-1.3,6-2.7,8.8-4.2
		c3.4-1.8,6.8-3.9,9.8-6.4c1.8-1.5,3.5-3.2,4.6-5.4c1.3-2.5,0.9-4.7-1.1-6.7c-2-2-4.4-3.3-6.9-4.4c-2.1-0.9-4.4-1.7-6.6-2.3
		c-0.5-0.1-0.7-0.6-0.7-1.1c0.1-0.5,0.5-0.8,1-0.7c2.8,0.3,5.6,0.8,8.3,1.6c2.2,0.6,4.3,1.5,6.2,2.7c2.3,1.5,4.1,3.4,5,6.1
		c0.7,2.3,0.5,4.6-0.4,6.8c-0.8,2.2-2.1,4.1-3.7,5.9c-3.2,3.6-7,6.4-11,8.9c-3.1,1.9-6.3,3.7-9.7,5.3c-1,0.5-2.1,1-3.2,1.4
		c-0.2,0.1-0.5,0.1-0.5,0.4c-0.3-0.1-0.5,0-0.7,0.1c-2.6,1.1-5.2,2.1-7.9,3.1c-0.8,0.3-1.6,0.4-2.4,0.9c-0.6,0-1.1,0.3-1.6,0.4
		c-4.7,1.5-9.5,2.8-14.4,4c-3.6,0.9-7.3,1.7-11,2.4c-0.2,0-0.5,0-0.6,0.2c-0.2,0-0.4,0-0.7,0.1c-0.9,0.2-1.8,0.4-2.7,0.5
		c-2,0.4-4.1,0.7-6.1,1c-1.7,0.2-3.5,0.5-5.2,0.7c-1.4,0.2-2.8,0.4-4.2,0.5c-1.6,0.2-3.3,0.4-4.9,0.5c-1,0.1-2,0.2-3,0.3
		c-2,0.2-4,0.3-6,0.4c-1.4,0.1-2.8,0.1-4.3,0.1c-0.2,0-0.5,0-0.7,0.1c-2.3,0-4.7,0-7,0.1c0,0-0.1,0-0.1-0.1
		c-2.2,0.1-4.5-0.1-6.7-0.1c-1.5,0-2.9-0.2-4.4-0.3c-0.7-0.1-1.3-0.1-2-0.2c-1.3-0.1-2.6-0.4-3.9-0.4c-0.9-0.3-1.8-0.3-2.7-0.5
		c-5.2-0.9-10.3-2.1-15.1-4.6c-2.1-1.1-4-2.6-5.3-4.5c-1.1-1.7-1.7-3.5-1.5-5.6c0.3-2.8,1.7-5.1,3.4-7.2c3-3.5,6.7-6,10.5-8.4
		c0.4-0.2,0.8-0.5,1.2-0.7c0.6-0.3,1-0.2,1.3,0.3c0.3,0.5,0.2,0.9-0.4,1.2c-2.3,1.5-4.6,3-6.7,4.8c-2.3,2-4.5,4-5.9,6.8
		c-1,2-1.5,4-0.6,6.1c0.7,1.5,1.8,2.6,3.2,3.6c2.3,1.6,4.9,2.5,7.5,3.3c3,0.9,6,1.4,9.1,1.8c0.8,0.1,1.5,0.2,2.3,0.3
		c2.2,0.2,4.5,0.3,6.8,0.5c2.1,0,4.2,0,6.3,0c1.7,0,3.5,0,5.2-0.1c1.3-0.1,2.6-0.1,3.9-0.2c1.9,0,3.8-0.2,5.7-0.4
		c1.6-0.2,3.2-0.3,4.9-0.5c1.9-0.2,3.7-0.4,5.6-0.7c2.3-0.3,4.7-0.7,7-1.1c2.4-0.4,4.8-0.8,7.2-1.4c3.5-0.7,7-1.5,10.4-2.3
		c0.5-0.1,1-0.2,1.4-0.4c1-0.1,1.9-0.4,2.8-0.7c2-0.5,4-1.1,6-1.7C151.3,122.3,155.1,121.1,158.8,119.8z"/>
	<path class="st13" d="M49.1,166.5c0-5.2,0-10.5,0-15.7c0-0.5,0.1-0.7,0.6-0.7c8.5,0,16.9,0,25.4,0c0.5,0,0.7,0.1,0.7,0.7
		c0,2.1,0,4.3,0,6.4c0,0.5-0.2,0.6-0.7,0.6c-4.8,0-9.6,0-14.5,0c-0.9,0-0.8-0.1-0.8,0.8c0,1.1,0,2.2,0,3.3c0,0.4,0.1,0.5,0.5,0.5
		c4.1,0,8.2,0,12.3,0c0.5,0,0.7,0.1,0.7,0.7c0,2.1,0,4.3,0,6.4c0,0.5-0.1,0.6-0.6,0.6c-4.1,0-8.2,0-12.3,0c-0.4,0-0.6,0.1-0.6,0.6
		c0,1.3,0,2.7,0,4c0,0.5,0.2,0.6,0.6,0.6c5.1,0,10.2,0,15.3,0c0.5,0,0.7,0.1,0.7,0.6c0,2.2,0,4.3,0,6.5c0,0.5-0.2,0.5-0.6,0.5
		c-8.7,0-17.5,0-26.2,0c-0.4,0-0.5-0.1-0.5-0.6C49.1,177,49.1,171.7,49.1,166.5z"/>
	<path class="st13" d="M152.5,166.5c0-5.3,0-10.5,0-15.8c0-0.5,0.1-0.6,0.6-0.6c8.5,0,16.9,0,25.4,0c0.5,0,0.6,0.1,0.6,0.6
		c0,2.2,0,4.3,0,6.5c0,0.5-0.1,0.6-0.6,0.6c-4.9,0-9.8,0-14.7,0c-0.6,0-0.7,0.1-0.7,0.7c0,1.1,0,2.2,0,3.3c0,0.5,0.1,0.7,0.7,0.7
		c4.1,0,8.1,0,12.2,0c0.6,0,0.7,0.2,0.7,0.7c0,2.1,0,4.3,0,6.4c0,0.5-0.1,0.6-0.6,0.6c-4.1,0-8.2,0-12.3,0c-0.5,0-0.6,0.1-0.6,0.6
		c0,1.3,0,2.6,0,3.9c0,0.5,0.1,0.6,0.6,0.6c5.1,0,10.2,0,15.2,0c0.6,0,0.7,0.1,0.7,0.7c0,2.1,0,4.3,0,6.4c0,0.4-0.1,0.6-0.6,0.6
		c-8.7,0-17.4,0-26.2,0c-0.5,0-0.6-0.1-0.6-0.6C152.5,177,152.5,171.7,152.5,166.5z"/>
	<path class="st13" d="M107,162.6c-1.5,0-3,0-4.6,0c-0.4,0-0.5-0.1-0.6-0.5c-0.3-2-1.2-3.7-3.3-4.4c-2-0.8-4-0.7-5.8,0.7
		c-1.1,0.9-1.7,2-2,3.3c-0.9,3.2-1,6.4-0.1,9.6c0.9,3.6,4.6,5.3,8,3.9c1.9-0.8,2.7-2.3,3.1-4.1c0.3-1,0.2-1,1.3-1c2.8,0,5.7,0,8.5,0
		c0.5,0,0.7,0.1,0.6,0.7c-0.6,3.6-2,6.8-4.8,9.2c-2.1,1.9-4.6,3-7.4,3.4c-1.7,0.2-3.5,0-5.2,0.1c-6.6,0.1-13.5-4.2-15.1-12.4
		c-0.8-3.9-0.7-7.8,0.8-11.6c2.2-5.6,6.3-8.9,12.2-9.9c3.5-0.6,7-0.3,10.3,0.9c5,1.8,7.8,5.5,8.8,10.6c0.1,0.4,0.1,0.8,0.2,1.1
		c0.1,0.4-0.1,0.5-0.4,0.4C110.2,162.6,108.6,162.6,107,162.6z"/>
	<path class="st13" d="M142.4,162.6c-1.5,0-3,0-4.5,0c-0.5,0-0.7-0.1-0.7-0.6c-0.3-2-1.3-3.6-3.2-4.3c-2-0.7-4-0.7-5.7,0.6
		c-0.9,0.7-1.5,1.6-1.9,2.7c-1.2,3.5-1.3,7.1-0.2,10.7c1.1,3.5,5.2,5.1,8.4,3.3c1.5-0.8,2.2-2.3,2.6-3.9c0.2-1,0.2-1,1.3-1
		c2.8,0,5.6,0,8.5,0c0.7,0,0.8,0,0.6,0.7c-0.6,4.3-2.5,7.8-6.1,10.2c-1.8,1.2-3.8,1.9-5.9,2.3c-0.2,0-0.4,0-0.6,0
		c-1.7,0-3.4,0.1-5,0c-6.3-0.3-11.1-3.1-13.6-9c-2.4-5.6-2.3-11.3,0.5-16.8c2.3-4.7,6.3-7.3,11.4-8.1c3.5-0.6,6.9-0.3,10.3,0.9
		c4.8,1.7,7.6,5.1,8.7,10.1c0.1,0.6,0.2,1.2,0.3,1.7c0.1,0.3-0.1,0.4-0.4,0.4C145.5,162.6,143.9,162.6,142.4,162.6z"/>
	<path class="st9" d="M81.1,133c-2.3-0.1-4.5-0.2-6.8-0.5c0.3-1.8,0.5-3.7,0.8-5.5c0.1-1.1,0.3-2.3,0.1-3.5
		c-0.1-0.8-0.4-0.9-1.1-0.8c-1.5,0.2-2.8,0.8-4.2,1.2c-1.4,0.5-2.8,1-4.3,1.2c-0.5,0.1-1.1,0.1-1.6,0.1c-1.1-0.1-1.5-0.9-1-1.8
		c0.6-1,1.3-1.8,2.1-2.5c3.7-3.4,7.9-6.3,12-9.2c5-3.5,10-6.8,15.4-9.6c2.1-1.1,4.2-2.2,6.6-2.7c0.6-0.1,1.4-0.3,1.8,0.3
		c0.4,0.5,0.1,1.2-0.2,1.7c-1,2.2-2.5,4.1-4,6c-1.7,2.1-3.4,4.2-5.1,6.3c-0.6,0.7-0.8,1.5-0.7,2.4c0.2,1.7,0.9,3.2,1.5,4.8
		c1.4,3.9,2.8,7.8,4.1,11.8c-1.3,0.2-2.6,0.2-3.9,0.2c-1.7,0.1-3.5,0.1-5.2,0.1c-0.8-1-1.7-2-2.7-2.8c-0.8-0.6-1.3-0.5-2,0.2
		C82,131.1,81.6,132.1,81.1,133z"/>
	<path class="st11" d="M133.9,45.5c5.8,0,10.5,4.7,10.5,10.5c0,5.8-4.7,10.5-10.6,10.5c-5.8,0-10.5-4.7-10.4-10.6
		C123.4,50.2,128.1,45.5,133.9,45.5z"/>
	<path class="st10" d="M232.1,167.1c0,2.2-0.2,5.1-1,7.8c-0.9,2.9-2.3,5.4-4.9,7.1c-1.4,0.9-2.9,1.5-4.6,1.4c-0.4,0-0.8,0-1.2,0
		c-3.4,0.2-5.8-1.5-7.7-4c-1.5-2-2.2-4.4-2.6-6.9c-0.6-4.3-0.6-8.6,0.1-12.9c0.5-2.8,1.5-5.4,3.5-7.5c4.3-4.4,11.3-3.9,15,1
		c1.8,2.4,2.7,5.1,3.1,8C232,162.9,232.1,164.6,232.1,167.1z M229,166.2c0-1.3-0.1-2.9-0.3-4.5c-0.3-2.1-0.9-4.2-2.1-6
		c-2.8-4.4-8.4-4.5-11.4-0.3c-1.4,1.9-1.9,4.1-2.1,6.3c-0.3,3.2-0.3,6.3,0,9.5c0.2,2.2,0.8,4.4,2.1,6.3c2,2.8,5.4,3.9,8.3,2.6
		c2.2-1,3.5-2.7,4.3-4.9C228.7,172.3,229,169.4,229,166.2z"/>
	<path class="st10" d="M190.4,179.6c4.9,0,9.6,0,14.3,0c0.7,0,0.7,0,0.7,0.8c0,0.6,0,1.3,0,1.9c0,0.4-0.1,0.5-0.5,0.5
		c-3.4,0-6.7,0-10.1,0c-3.7,0-7.3,0-11,0c-0.2,0-0.4,0-0.7,0c0.6-0.6,1.1-1.2,1.6-1.7c4.4-4.8,9-9.6,13.3-14.5
		c1.2-1.4,2.4-2.7,3.1-4.5c1.9-4.7-0.6-8.5-4.3-9.6c-4.1-1.2-8.2,0.8-9.4,5.4c-0.2,0.6-0.3,1.3-0.3,1.9c0,0.3-0.1,0.3-0.4,0.3
		c-0.8,0-1.6,0-2.5,0c-0.3,0-0.4-0.1-0.4-0.4c0.3-6.4,5.3-11.3,12.1-10.7c4.9,0.4,7.8,3.9,8.7,7.1c0.8,3.2,0.2,6.2-1.6,8.9
		c-1.7,2.5-3.8,4.8-5.9,7c-2.2,2.3-4.3,4.7-6.5,7C190.6,179.3,190.5,179.4,190.4,179.6z"/>
	<path class="st11" d="M163.5,125.7c0.7-0.5,1.6-0.6,2.4-0.9c2.7-0.9,5.3-2,7.9-3.1c0.2-0.1,0.5-0.2,0.7-0.1
		c1.6,4.1,2.8,8.3,3.9,12.6c0.4,1.5,0.8,3.1,1,4.7c0.1,0.7,0.2,1.5-0.6,2c-0.8,0.5-1.6,0.4-2.4,0c-1.4-0.8-2.5-2-3.6-3.2
		C169.4,133.8,166.5,129.7,163.5,125.7z"/>
	<path class="st10" d="M247.3,166.4c0,5.3,0,10.6,0,15.9c0,0.4-0.1,0.6-0.6,0.6c-0.7,0-1.5,0-2.2,0c-0.4,0-0.5-0.1-0.5-0.5
		c0-3.4,0-6.7,0-10.1c0-6.1,0-12.3,0-18.4c0-0.4-0.1-0.6-0.5-0.6c-1.4,0-2.7,0-4.1,0c-0.4,0-0.5,0-0.3-0.4c0.5-0.9,1.1-1.7,1.6-2.6
		c0.1-0.2,0.2-0.3,0.5-0.3c1.9,0,3.8,0,5.8,0c0.5,0,0.4,0.3,0.4,0.6C247.3,155.8,247.3,161.1,247.3,166.4z"/>
	<path class="st9" d="M79.8,94.8c3.3,0,6,2.6,5.9,5.9c0,3.3-2.6,5.9-5.9,5.9c-3.3,0-5.9-2.6-5.9-5.9C73.9,97.4,76.5,94.8,79.8,94.8z
		"/>
	<path class="st11" d="M126.3,134.3c2-0.3,4.1-0.7,6.1-1c0.9-0.2,1.8-0.3,2.7-0.5c0.2,0,0.4-0.1,0.7-0.1c-1,2.1-2.1,4.2-3.6,6.1
		c-0.6,0.7-1.3,1.4-2.1,1.9c-0.5,0.3-1,0.4-1.6,0.5c-0.7,0-1.2-0.3-1.5-0.8c-0.5-0.8-0.6-1.8-0.7-2.7
		C126.3,136.5,126.2,135.4,126.3,134.3z"/>
	<path class="st9" d="M73.8,136c1.3,0,2.6,0.3,3.9,0.4c0.7,0,1.3,0.1,2,0.2c-0.6,1.8-1.3,3.6-2.1,5.3c-0.4,0.7-0.8,1.3-1.4,1.8
		c-0.9,0.7-1.9,0.5-2.3-0.6c-0.5-1.2-0.4-2.4-0.4-3.6C73.6,138.3,73.7,137.1,73.8,136z"/>
	<path class="st9" d="M90.9,137.1c2.3,0,4.7,0,7-0.1c0.4,1.6,0.9,3.2,1,4.9c0,0.5,0,0.9-0.1,1.4c-0.2,0.8-0.7,1-1.4,0.6
		c-0.7-0.3-1.3-0.9-1.9-1.4c-1.7-1.7-3.1-3.5-4.6-5.3C90.9,137.2,90.9,137.1,90.9,137.1z"/>
	<path class="st13" d="M90.9,137.1c0,0,0,0.1,0,0.1c0-0.1-0.1-0.1-0.1-0.2C90.8,137,90.9,137.1,90.9,137.1z"/>
	<path class="st14" d="M269.2,180.5c-1.5,0-2.9-0.2-4.2-0.9c-3.7-2-4.7-6.6-2.1-10c3-3.9,8.9-4,12-0.9c4,4,1.8,9.7-2.5,11.3
		C271.4,180.4,270.3,180.5,269.2,180.5z"/>
	<path class="st14" d="M269.1,163.5c-2.2,0-4-1.1-5.3-3.1c-1.3-2-0.9-4.5,0.8-6.2c2.3-2.2,6.3-2.2,8.3-0.8c4.2,2.8,2.7,7.6-0.5,9.4
		C271.5,163.2,270.5,163.5,269.1,163.5z"/>
	<path class="st14" d="M158.8,119.8c-3.8,1.3-7.5,2.6-11.4,3.7c-2,0.6-4,1.2-6,1.7c-0.9,0.2-1.8,0.6-2.8,0.7
		c1.1-2.7,2.2-5.5,3.4-8.2c0.9-1.9,1.8-3.8,3.2-5.5c0.3-0.4,0.6-0.7,1-1c0.9-0.8,1.9-0.8,2.9-0.5c1.2,0.4,2.2,1.2,3.2,2
		C154.8,114.8,156.9,117.2,158.8,119.8z"/>
	<path class="st14" d="M81.1,133c0.4-0.9,0.9-1.9,1.6-2.6c0.7-0.7,1.2-0.7,2-0.2c1.1,0.8,1.9,1.8,2.7,2.8
		C85.3,133,83.2,133,81.1,133z"/>
	<path class="st14" d="M229,166.2c0,3.2-0.3,6.2-1.3,9c-0.8,2.2-2.1,3.9-4.3,4.9c-2.9,1.3-6.3,0.2-8.3-2.6c-1.3-1.9-1.8-4-2.1-6.3
		c-0.3-3.2-0.3-6.3,0-9.5c0.2-2.3,0.8-4.5,2.1-6.3c3-4.2,8.7-4.1,11.4,0.3c1.2,1.8,1.7,3.9,2.1,6C228.9,163.3,229,164.8,229,166.2z"
		/>
</g>
<text transform="matrix(1 0 0 1 113.7266 446.28)"><tspan x="0" y="0" class="st5 st15">Команда </tspan><tspan x="157.2" y="0" class="st16 st5 st15">              </tspan><tspan x="282.5" y="0" class="st5 st15"> ждет Вас на стенде №11</tspan><tspan x="695.3" y="0" class="st17 st15">!</tspan></text>
<g>
	<path class="st18" d="M282.5,422.1h3.7c0.5,0,0.7,0.2,0.7,0.7v22c0,1.4-0.7,2.1-2.1,2.1h-4.1c-4.7,0-6.7-3.1-6.7-7.2v-16.9
		c0-0.5,0.2-0.7,0.7-0.7h3.8c0.5,0,0.7,0.2,0.7,0.7V440c0,1.3,0.6,2.3,1.6,2.3h0.9v-19.4C281.8,422.4,282.1,422.1,282.5,422.1z"/>
	<path class="st18" d="M298.2,422.1h3.7c0.5,0,0.7,0.2,0.7,0.7v23.2c0,0.5-0.2,0.7-0.7,0.7h-3.7c-0.5,0-0.7-0.2-0.7-0.7v-9.3h-2.4
		v9.3c0,0.5-0.2,0.7-0.7,0.7h-3.7c-0.5,0-0.7-0.2-0.7-0.7v-23.2c0-0.5,0.2-0.7,0.7-0.7h3.7c0.5,0,0.7,0.2,0.7,0.7v9.2h2.4v-9.2
		C297.5,422.4,297.7,422.1,298.2,422.1z"/>
	<path class="st18" d="M312.4,448v-2.8h-1c-4,0-6.6-2.7-6.6-7v-7.9c0-4.3,2.6-7,6.6-7h1V421c0-0.4,0.3-0.7,0.7-0.7h3.7
		c0.4,0,0.7,0.3,0.7,0.7v2.4h1c4,0,6.6,2.7,6.6,7v7.9c0,4.3-2.6,7-6.6,7h-1v2.8c0,0.4-0.3,0.7-0.7,0.7h-3.7
		C312.7,448.7,312.4,448.4,312.4,448z M312.4,440.5v-12.3h-0.7c-1.2,0-1.8,0.7-1.8,1.9v8.6c0,1.2,0.6,1.9,1.8,1.9H312.4z
		 M318.2,440.5c1.2,0,1.8-0.7,1.8-1.9V430c0-1.2-0.6-1.9-1.8-1.9h-0.7v12.3H318.2z"/>
	<path class="st18" d="M327,440.4v-11.9c0-4.1,2.7-6.8,6.6-6.8c3.9,0,6.6,2.7,6.6,6.8v11.9c0,4.1-2.7,6.8-6.6,6.8
		C329.7,447.2,327,444.5,327,440.4z M335.1,440.8v-12.8c0-1-0.5-1.5-1.4-1.5c-0.9,0-1.4,0.6-1.4,1.5v12.8c0,1,0.5,1.5,1.4,1.5
		C334.5,442.4,335.1,441.8,335.1,440.8z"/>
	<path class="st19" d="M342.2,446.5v-22.1c0-1.5,0.7-2.3,2.1-2.3h3.1c1.1,0,1.6,0.7,2,2l1.8,6c0.4,1.2,0.9,3.2,1.1,4.5h0.1
		c0.2-1.3,0.7-3.3,1.1-4.5l1.8-6c0.4-1.2,0.9-2,2-2h3.1c1.4,0,2.1,0.8,2.1,2.3v22.1c0,0.5-0.2,0.7-0.7,0.7h-3.7
		c-0.5,0-0.7-0.2-0.7-0.7v-10.7c0-2.3,0.1-4.5,0.2-6.6h-0.1c-0.2,1.4-0.6,3.5-1,4.9l-1.3,5c-0.3,1.2-1,1.9-2.3,1.9h-1.1
		c-1.3,0-2-0.7-2.3-1.9l-1.3-5c-0.4-1.4-0.8-3.5-1-4.9H347c0.1,2.1,0.2,4.3,0.2,6.6v10.7c0,0.5-0.2,0.7-0.7,0.7h-3.7
		C342.4,447.2,342.2,446.9,342.2,446.5z"/>
	<path class="st19" d="M373.6,422.3h3.8c0.5,0,0.7,0.2,0.7,0.7v22.2c0,1.4-0.7,2.1-2.1,2.1h-4.1c-4.7,0-6.8-3.1-6.8-7.3V423
		c0-0.5,0.2-0.7,0.7-0.7h3.8c0.5,0,0.7,0.2,0.7,0.7v17.3c0,1.4,0.6,2.3,1.6,2.3h0.9V423C372.9,422.5,373.1,422.3,373.6,422.3z"/>
	<path class="st19" d="M380.9,446.5v-17.8c0-4.1,2.6-6.9,6.4-6.9c4,0,6.7,2.7,6.7,6.9v3.2c0,4.1-2.6,6.9-6.6,6.9h-1.3v7.6
		c0,0.5-0.2,0.7-0.7,0.7h-3.8C381.2,447.2,380.9,446.9,380.9,446.5z M387.1,434c1.2,0,1.7-0.6,1.7-1.9v-3.8c0-1-0.5-1.5-1.4-1.5
		c-0.8,0-1.3,0.6-1.3,1.5v5.7H387.1z"/>
</g>
</svg>
