<?xml version="1.0" encoding="utf-8"?>
<!-- Generator: Adobe Illustrator 21.0.2, SVG Export Plug-In . SVG Version: 6.00 Build 0)  -->
<svg version="1.1" id="Layer_1" xmlns="http://www.w3.org/2000/svg" xmlns:xlink="http://www.w3.org/1999/xlink" x="0px" y="0px"
	 viewBox="0 0 81 40" style="enable-background:new 0 0 81 40;" xml:space="preserve">
<style type="text/css">
	.st0{fill:#D9E021;}
</style>
<g>
	<rect x="28.8" y="26.8" class="st0" width="2.3" height="2"/>
	<rect x="31.1" y="22.9" class="st0" width="2.3" height="2"/>
	<rect x="26.5" y="22.9" class="st0" width="2.3" height="2"/>
	<rect x="24.3" y="19" class="st0" width="2.3" height="2"/>
	<rect x="28.8" y="19" class="st0" width="2.3" height="2"/>
	<path class="st0" d="M70.9,0H10.1C4.5,0,0,4.5,0,10.1v19.8C0,35.5,4.5,40,10.1,40h60.8C76.5,40,81,35.5,81,29.9V10.1
		C81,4.5,76.5,0,70.9,0z M47.6,17.6L47,19h-9.1v2h8.3l-0.8,2h-9.7v2h8.9l-0.8,2H33.3v2h9.5l-1,2.3c-0.2,0.6-0.9,1-1.6,1H22.4
		c-0.7,0-1.4-0.4-1.6-1l-5.7-13.5c-0.4-0.9,0.5-1.9,1.6-1.9h5.8l1.9-8.6c0.2-0.7,0.8-1.2,1.6-1.2h10.5c0.7,0,1.4,0.5,1.6,1.2
		l1.9,8.6h6C47.1,15.7,47.9,16.7,47.6,17.6z M62.2,29.5l-8.8-13.8h17.5L62.2,29.5z"/>
	<path class="st0" d="M35,9.2h-7.4c-0.5,0-1,0.5-1.1,1.2l-0.8,5.3h11.1L36,10.4C36,9.7,35.5,9.2,35,9.2z"/>
	<rect x="33.3" y="19" class="st0" width="2.3" height="2"/>
	<path d="M46,15.7h-5.8l-1.9-8.6c-0.2-0.7-0.8-1.2-1.6-1.2H26.1c-0.7,0-1.4,0.5-1.6,1.2l-1.9,8.6h-5.8c-1.2,0-2,1-1.6,1.9l5.7,13.5
		c0.2,0.6,0.9,1,1.6,1h17.9c0.7,0,1.4-0.4,1.6-1l1-2.3h-9.5v-2h10.4l0.8-2h-8.9v-2h9.7l0.8-2H38v-2h9l0.6-1.4
		C47.9,16.7,47.1,15.7,46,15.7z M24.3,19h2.3v2h-2.3V19z M26.5,22.9h2.3v2h-2.3V22.9z M31.1,28.8h-2.3v-2h2.3V28.8z M28.8,21v-2h2.3
		v2H28.8z M33.3,24.9H31v-2h2.3V24.9z M35.6,21h-2.3v-2h2.3V21z M25.8,15.7l0.8-5.3c0.1-0.7,0.6-1.2,1.1-1.2H35c0.5,0,1,0.5,1.1,1.2
		l0.8,5.3H25.8z"/>
	<polygon points="62.2,29.5 70.9,15.8 53.4,15.8 	"/>
</g>
</svg>
