<?xml version="1.0" encoding="utf-8"?>
<!-- Generator: Adobe Illustrator 21.0.2, SVG Export Plug-In . SVG Version: 6.00 Build 0)  -->
<svg version="1.1" id="Layer_1" xmlns="http://www.w3.org/2000/svg" xmlns:xlink="http://www.w3.org/1999/xlink" x="0px" y="0px"
	 viewBox="0 0 80 80" style="enable-background:new 0 0 80 80;" xml:space="preserve">
<style type="text/css">
	.st0{fill:#FFFFFF;}
</style>
<g>
	<g>
		<path class="st0" d="M40,0C17.9,0,0,17.9,0,40s17.9,40,40,40s40-17.9,40-40S62.1,0,40,0z M34.7,56.4c-2.5,2.5-5.7,3.8-9.6,3.8
			c-3.8,0-7-1.2-9.6-3.6c-2.6-2.4-3.9-5.5-4.2-9.2h7.2c0.2,1.9,1,3.4,2.1,4.5c1.2,1.1,2.6,1.7,4.4,1.7s3.3-0.6,4.5-1.9
			c1.2-1.3,1.8-2.8,1.8-4.7c0-2-0.7-3.7-2.1-4.9s-3.3-1.8-5.7-1.8h-1.2v-6.9c1.7-0.1,3-0.3,3.9-0.6c1.5-0.7,2.2-1.8,2.2-3.5
			c0-1.1-0.3-2-1-2.7s-1.4-1-2.4-1s-1.8,0.3-2.3,0.9s-0.9,1.5-1,2.7h-7.3c0.1-1.7,0.4-3,0.8-4c0.4-1,1-2,1.9-2.9
			c2.1-2.2,4.7-3.2,7.8-3.2s5.6,1,7.7,3c2,2,3.1,4.6,3.1,7.6c0,1.5-0.3,2.9-0.8,4s-1.4,2.1-2.5,2.9c4.1,1.9,6.2,5.3,6.2,10.3
			C38.5,50.7,37.3,53.9,34.7,56.4z M59.8,42.7v10.5h-6.4V42.7H43v-6.4h10.4V25.8h6.4v10.5h10.3v6.4H59.8z"/>
	</g>
	<path d="M32.3,36.6c1.2-0.8,2-1.8,2.5-2.9c0.5-1.1,0.8-2.4,0.8-4c0-3.1-1-5.6-3.1-7.6c-2-2-4.6-3-7.7-3c-3.2,0-5.8,1.1-7.8,3.2
		c-0.9,0.9-1.5,1.9-1.9,2.9s-0.7,2.4-0.8,4h7.3c0.2-1.2,0.5-2.2,1-2.7c0.5-0.6,1.3-0.9,2.3-0.9s1.9,0.4,2.5,1.1s1,1.6,1,2.7
		c0,1.7-0.7,2.8-2.2,3.5c-0.9,0.4-2.2,0.6-3.9,0.6v6.9h1.2c2.4,0,4.3,0.6,5.7,1.8c1.4,1.2,2.1,2.8,2.1,4.9c0,1.9-0.6,3.5-1.8,4.7
		c-1.2,1.3-2.7,1.9-4.5,1.9c-1.7,0-3.2-0.6-4.4-1.7c-1.2-1.1-1.9-2.6-2.1-4.5h-7.2c0.2,3.8,1.6,6.8,4.2,9.2s5.7,3.6,9.6,3.6
		s7-1.3,9.6-3.8c2.5-2.5,3.8-5.7,3.8-9.6C38.5,41.9,36.5,38.4,32.3,36.6z"/>
	<polygon points="59.8,36.3 59.8,25.8 53.3,25.8 53.3,36.3 43,36.3 43,42.7 53.3,42.7 53.3,53.2 59.8,53.2 59.8,42.7 70.1,42.7 
		70.1,36.3 	"/>
</g>
</svg>
